RobotoSerifText-SuperCond 01r.ufo
<glyph name="plus" format="2">
  <advance width="471"/>
  <unicode hex="002B"/>
  <outline>
    <contour>
      <point x="165.0" y="568.0" type="line"/>
      <point x="165.0" y="114.0" type="line"/>
      <point x="304.0" y="114.0" type="line"/>
      <point x="304.0" y="568.0" type="line"/>
    </contour>
    <contour>
      <point x="428.0" y="406.0" type="line"/>
      <point x="44.0" y="406.0" type="line"/>
      <point x="44.0" y="276.0" type="line"/>
      <point x="428.0" y="276.0" type="line"/>
    </contour>
  </outline>
</glyph>
<glyph name="five" format="2">
  <advance width="471"/>
  <unicode hex="0035"/>
  <outline>
    <contour>
      <point x="229.0" y="-90.0" type="curve" smooth="yes"/>
      <point x="103.0" y="-90.0"/>
      <point x="38.0" y="-20.0"/>
      <point x="7.0" y="72.0" type="curve"/>
      <point x="94.0" y="127.0" type="line"/>
      <point x="110.0" y="74.0"/>
      <point x="141.0" y="5.0"/>
      <point x="190.0" y="5.0" type="curve" smooth="yes"/>
      <point x="236.0" y="5.0"/>
      <point x="253.0" y="57.0"/>
      <point x="253.0" y="152.0" type="curve" smooth="yes"/>
      <point x="253.0" y="233.0"/>
      <point x="239.0" y="278.0"/>
      <point x="199.0" y="278.0" type="curve" smooth="yes"/>
      <point x="163.0" y="278.0"/>
      <point x="147.0" y="251.0"/>
      <point x="137.0" y="207.0" type="curve"/>
      <point x="50.0" y="207.0" type="line"/>
      <point x="50.0" y="609.0" type="line"/>
      <point x="416.0" y="609.0" type="line"/>
      <point x="405.0" y="461.0" type="line"/>
      <point x="132.0" y="461.0" type="line"/>
      <point x="145.0" y="589.0" type="line"/>
      <point x="145.0" y="276.0" type="line"/>
      <point x="140.0" y="263.0"/>
      <point x="130.0" y="258.0"/>
      <point x="120.0" y="269.0" type="curve"/>
      <point x="149.0" y="324.0"/>
      <point x="183.0" y="366.0"/>
      <point x="276.0" y="366.0" type="curve" smooth="yes"/>
      <point x="397.0" y="366.0"/>
      <point x="462.0" y="273.0"/>
      <point x="462.0" y="151.0" type="curve" smooth="yes"/>
      <point x="462.0" y="4.0"/>
      <point x="374.0" y="-90.0"/>
    </contour>
  </outline>
</glyph>
<glyph name="L" format="2">
  <advance width="553"/>
  <unicode hex="004C"/>
  <anchor x="350" y="741" name="top"/>
  <anchor x="448" y="710" name="right"/>
  <anchor x="450" y="410" name="mid"/>
  <anchor x="350" y="0" name="bottom"/>
  <outline>
    <contour>
      <point x="345.0" y="710.0" type="line"/>
      <point x="345.0" y="633.0" type="line"/>
      <point x="330.0" y="633.0" type="line" smooth="yes"/>
      <point x="312.0" y="633.0"/>
      <point x="299.0" y="626.0"/>
      <point x="299.0" y="597.0" type="curve" smooth="yes"/>
      <point x="299.0" y="87.0" type="line"/>
      <point x="338.0" y="87.0" type="line" smooth="yes"/>
      <point x="399.0" y="87.0"/>
      <point x="425.0" y="94.0"/>
      <point x="428.0" y="130.0" type="curve" smooth="yes"/>
      <point x="436.0" y="245.0" type="line"/>
      <point x="537.0" y="245.0" type="line"/>
      <point x="537.0" y="0.0" type="line"/>
      <point x="14.0" y="0.0" type="line"/>
      <point x="14.0" y="77.0" type="line"/>
      <point x="23.0" y="77.0" type="line" smooth="yes"/>
      <point x="40.0" y="77.0"/>
      <point x="52.0" y="84.0"/>
      <point x="52.0" y="113.0" type="curve" smooth="yes"/>
      <point x="52.0" y="597.0" type="line" smooth="yes"/>
      <point x="52.0" y="626.0"/>
      <point x="40.0" y="633.0"/>
      <point x="23.0" y="633.0" type="curve" smooth="yes"/>
      <point x="14.0" y="633.0" type="line"/>
      <point x="14.0" y="710.0" type="line"/>
    </contour>
  </outline>
</glyph>
<glyph name="O" format="2">
  <advance width="668"/>
  <unicode hex="004F"/>
  <guideline x="349" y="365" angle="90" identifier="N0eRZKpNqr"/>
  <anchor x="334.0" y="741" name="top"/>
  <anchor x="334.0" y="0" name="bottom"/>
  <outline>
    <contour>
      <point x="334.0" y="-10.0" type="curve" smooth="yes"/>
      <point x="538.0" y="-10.0"/>
      <point x="643.0" y="123.0"/>
      <point x="643.0" y="355.0" type="curve" smooth="yes"/>
      <point x="643.0" y="586.0"/>
      <point x="538.0" y="720.0"/>
      <point x="334.0" y="720.0" type="curve" smooth="yes"/>
      <point x="130.0" y="720.0"/>
      <point x="25.0" y="586.0"/>
      <point x="25.0" y="355.0" type="curve" smooth="yes"/>
      <point x="25.0" y="123.0"/>
      <point x="130.0" y="-10.0"/>
    </contour>
    <contour>
      <point x="334.0" y="84.0" type="curve" smooth="yes"/>
      <point x="290.0" y="84.0"/>
      <point x="265.0" y="135.0"/>
      <point x="265.0" y="355.0" type="curve" smooth="yes"/>
      <point x="265.0" y="575.0"/>
      <point x="290.0" y="626.0"/>
      <point x="334.0" y="626.0" type="curve" smooth="yes"/>
      <point x="379.0" y="626.0"/>
      <point x="403.0" y="575.0"/>
      <point x="403.0" y="355.0" type="curve" smooth="yes"/>
      <point x="403.0" y="135.0"/>
      <point x="379.0" y="84.0"/>
    </contour>
  </outline>
</glyph>
<glyph name="a" format="2">
  <advance width="537"/>
  <unicode hex="0061"/>
  <anchor x="242" y="513" name="top"/>
  <anchor x="424" y="-10" name="right"/>
  <anchor x="275" y="0" name="bottom"/>
  <outline>
    <contour>
      <point x="288.0" y="308.0" type="line"/>
      <point x="95.0" y="276.0"/>
      <point x="10" y="238"/>
      <point x="10.0" y="127.0" type="curve" smooth="yes"/>
      <point x="10.0" y="31"/>
      <point x="46" y="-10.0"/>
      <point x="153.0" y="-10.0" type="curve" smooth="yes"/>
      <point x="222" y="-10"/>
      <point x="265.0" y="23.0"/>
      <point x="291.0" y="101.0" type="curve"/>
      <point x="288.0" y="165.0" type="line"/>
      <point x="275.0" y="100.0"/>
      <point x="261.0" y="79.0"/>
      <point x="241.0" y="79.0" type="curve" smooth="yes"/>
      <point x="222.0" y="79.0"/>
      <point x="216.0" y="88"/>
      <point x="216.0" y="136.0" type="curve" smooth="yes"/>
      <point x="216" y="209"/>
      <point x="230.0" y="232.0"/>
      <point x="288.0" y="244.0" type="curve"/>
    </contour>
    <contour>
      <point x="285.0" y="0.0" type="line"/>
      <point x="524.0" y="0.0" type="line"/>
      <point x="524.0" y="75.0" type="line"/>
      <point x="515" y="77" type="line" smooth="yes"/>
      <point x="504" y="79"/>
      <point x="503" y="86"/>
      <point x="503.0" y="99" type="curve" smooth="yes"/>
      <point x="503.0" y="360" type="line" smooth="yes"/>
      <point x="503" y="467"/>
      <point x="419" y="523.0"/>
      <point x="261.0" y="523.0" type="curve" smooth="yes"/>
      <point x="131" y="523"/>
      <point x="75.0" y="487"/>
      <point x="34.0" y="440.0" type="curve"/>
      <point x="35.0" y="342.0" type="line"/>
      <point x="202.0" y="342.0" type="line"/>
      <point x="202.0" y="446.0" type="line"/>
      <point x="158.0" y="441.0"/>
      <point x="148.0" y="409.0"/>
      <point x="184.0" y="387.0" type="curve"/>
      <point x="193.0" y="425.0"/>
      <point x="209" y="436"/>
      <point x="236" y="436.0" type="curve" smooth="yes"/>
      <point x="264.0" y="436.0"/>
      <point x="273.0" y="425"/>
      <point x="273.0" y="373" type="curve" smooth="yes"/>
      <point x="273.0" y="99.0" type="line"/>
      <point x="285.0" y="96.0" type="line"/>
    </contour>
  </outline>
</glyph>
<glyph name="f" format="2">
  <advance width="389"/>
  <unicode hex="0066"/>
  <outline>
    <contour>
      <point x="-6.0" y="513.0" type="line"/>
      <point x="-6.0" y="432.0" type="line"/>
      <point x="379.0" y="432.0" type="line"/>
      <point x="379.0" y="513.0" type="line"/>
    </contour>
    <contour>
      <point x="407.0" y="735.0" type="line"/>
      <point x="394.0" y="741.0"/>
      <point x="352.0" y="748.0"/>
      <point x="299.0" y="748.0" type="curve" smooth="yes"/>
      <point x="158.0" y="748.0"/>
      <point x="48.0" y="695.0"/>
      <point x="48.0" y="543.0" type="curve" smooth="yes"/>
      <point x="48.0" y="102.0" type="line" smooth="yes"/>
      <point x="48.0" y="81.0"/>
      <point x="38.0" y="72.0"/>
      <point x="19.0" y="72.0" type="curve" smooth="yes"/>
      <point x="9.0" y="72.0" type="line"/>
      <point x="9.0" y="0.0" type="line"/>
      <point x="329.0" y="0.0" type="line"/>
      <point x="329.0" y="72.0" type="line"/>
      <point x="322.0" y="72.0" type="line" smooth="yes"/>
      <point x="305.0" y="72.0"/>
      <point x="279.0" y="74.0"/>
      <point x="279.0" y="80.0" type="curve" smooth="yes"/>
      <point x="279.0" y="564.0" type="line" smooth="yes"/>
      <point x="279.0" y="633.0"/>
      <point x="299.0" y="661.0"/>
      <point x="343.0" y="661.0" type="curve" smooth="yes"/>
      <point x="374.0" y="661.0"/>
      <point x="401.0" y="650.0"/>
      <point x="407.0" y="646.0" type="curve"/>
    </contour>
  </outline>
</glyph>
<glyph name="x" format="2">
  <advance width="510"/>
  <unicode hex="0078"/>
  <outline>
    <contour>
      <point x="503.0" y="0.0" type="line"/>
      <point x="503.0" y="71.0" type="line"/>
      <point x="502.0" y="71.0" type="line"/>
      <point x="485.0" y="71.0"/>
      <point x="480.0" y="81.0"/>
      <point x="468.0" y="105.0" type="curve" smooth="yes"/>
      <point x="372.0" y="280.0" type="line"/>
      <point x="369.0" y="284.0" type="line"/>
      <point x="288.0" y="434.0" type="line"/>
      <point x="288.0" y="440.0"/>
      <point x="303.0" y="442.0"/>
      <point x="315.0" y="442.0" type="curve" smooth="yes"/>
      <point x="317.0" y="442.0" type="line"/>
      <point x="317.0" y="513.0" type="line"/>
      <point x="5.0" y="513.0" type="line"/>
      <point x="5.0" y="441.0" type="line"/>
      <point x="5.0" y="441.0" type="line"/>
      <point x="21.0" y="441.0"/>
      <point x="24.0" y="436.0"/>
      <point x="35.0" y="415.0" type="curve" smooth="yes"/>
      <point x="132.0" y="238.0" type="line"/>
      <point x="135.0" y="235.0" type="line"/>
      <point x="220.0" y="80.0" type="line"/>
      <point x="220.0" y="73.0"/>
      <point x="203.0" y="71.0"/>
      <point x="190.0" y="71.0" type="curve" smooth="yes"/>
      <point x="189.0" y="71.0" type="line"/>
      <point x="189.0" y="0.0" type="line"/>
    </contour>
    <contour>
      <point x="10.0" y="0.0" type="line"/>
      <point x="152.0" y="0.0" type="line"/>
      <point x="152.0" y="71.0" type="line"/>
      <point x="152.0" y="71.0" type="line" smooth="yes"/>
      <point x="139.0" y="71.0"/>
      <point x="126.0" y="79.0"/>
      <point x="126.0" y="91.0" type="curve"/>
      <point x="217.0" y="240.0" type="line"/>
      <point x="152.0" y="274.0" type="line"/>
      <point x="46.0" y="109.0" type="line" smooth="yes"/>
      <point x="31.0" y="84.0"/>
      <point x="24.0" y="71.0"/>
      <point x="11.0" y="71.0" type="curve"/>
      <point x="10.0" y="71.0" type="line"/>
    </contour>
    <contour>
      <point x="359.0" y="244.0" type="line"/>
      <point x="454.0" y="397.0" type="line" smooth="yes"/>
      <point x="472.0" y="427.0"/>
      <point x="479.0" y="442.0"/>
      <point x="495.0" y="442.0" type="curve"/>
      <point x="494.0" y="442.0" type="line"/>
      <point x="494.0" y="513.0" type="line"/>
      <point x="359.0" y="513.0" type="line"/>
      <point x="359.0" y="442.0" type="line"/>
      <point x="361.0" y="442.0" type="line" smooth="yes"/>
      <point x="371.0" y="442.0"/>
      <point x="382.0" y="434.0"/>
      <point x="382.0" y="422.0" type="curve"/>
      <point x="296.0" y="281.0" type="line"/>
    </contour>
  </outline>
</glyph>
<glyph name="Oslash" format="2">
  <advance width="688"/>
  <unicode hex="00D8"/>
  <anchor x="346" y="731" name="top"/>
  <outline>
    <contour>
      <point x="-23.0" y="-15.0" type="line"/>
      <point x="88.0" y="-15.0" type="line"/>
      <point x="687.0" y="725.0" type="line"/>
      <point x="575.0" y="725.0" type="line"/>
    </contour>
    <contour>
      <point x="344.0" y="-10.0" type="curve" smooth="yes"/>
      <point x="537.0" y="-10.0"/>
      <point x="667.0" y="134.0"/>
      <point x="667.0" y="355.0" type="curve" smooth="yes"/>
      <point x="667.0" y="576.0"/>
      <point x="517.0" y="720.0"/>
      <point x="344.0" y="720.0" type="curve" smooth="yes"/>
      <point x="151.0" y="720.0"/>
      <point x="21.0" y="576.0"/>
      <point x="21.0" y="355.0" type="curve" smooth="yes"/>
      <point x="21.0" y="134.0"/>
      <point x="175.0" y="-10.0"/>
    </contour>
    <contour>
      <point x="339.0" y="84.0" type="curve" smooth="yes"/>
      <point x="281.0" y="84.0"/>
      <point x="260.0" y="166.0"/>
      <point x="260.0" y="355.0" type="curve" smooth="yes"/>
      <point x="260.0" y="533.0"/>
      <point x="290.0" y="626.0"/>
      <point x="349.0" y="626.0" type="curve" smooth="yes"/>
      <point x="406.0" y="626.0"/>
      <point x="428.0" y="544.0"/>
      <point x="428.0" y="355.0" type="curve" smooth="yes"/>
      <point x="428.0" y="177.0"/>
      <point x="398.0" y="84.0"/>
    </contour>
  </outline>
</glyph>
<glyph name="idieresis" format="2">
  <advance width="291"/>
  <unicode hex="00EF"/>
  <outline>
    <contour>
      <point x="35.0" y="563.0" type="curve" smooth="yes"/>
      <point x="102.0" y="563.0"/>
      <point x="141.0" y="598.0"/>
      <point x="141.0" y="655.0" type="curve" smooth="yes"/>
      <point x="141.0" y="713.0"/>
      <point x="102.0" y="747.0"/>
      <point x="35.0" y="747.0" type="curve" smooth="yes"/>
      <point x="-33.0" y="747.0"/>
      <point x="-73.0" y="713.0"/>
      <point x="-73.0" y="655.0" type="curve" smooth="yes"/>
      <point x="-73.0" y="597.0"/>
      <point x="-33.0" y="563.0"/>
    </contour>
    <contour>
      <point x="257.0" y="563.0" type="curve" smooth="yes"/>
      <point x="325.0" y="563.0"/>
      <point x="365.0" y="598.0"/>
      <point x="365.0" y="655.0" type="curve" smooth="yes"/>
      <point x="365.0" y="713.0"/>
      <point x="325.0" y="747.0"/>
      <point x="257.0" y="747.0" type="curve" smooth="yes"/>
      <point x="190.0" y="747.0"/>
      <point x="150.0" y="713.0"/>
      <point x="150.0" y="655.0" type="curve" smooth="yes"/>
      <point x="150.0" y="597.0"/>
      <point x="190.0" y="563.0"/>
    </contour>
    <component base="dotlessi"/>
  </outline>
</glyph>
<glyph name="divide" format="2">
  <advance width="471"/>
  <unicode hex="00F7"/>
  <outline>
    <contour>
      <point x="335.0" y="552.0" type="curve" smooth="yes"/>
      <point x="335.0" y="606.0"/>
      <point x="299.0" y="644.0"/>
      <point x="235.0" y="644.0" type="curve" smooth="yes"/>
      <point x="172.0" y="644.0"/>
      <point x="136.0" y="606.0"/>
      <point x="136.0" y="552.0" type="curve" smooth="yes"/>
      <point x="136.0" y="499.0"/>
      <point x="172.0" y="462.0"/>
      <point x="235.0" y="462.0" type="curve" smooth="yes"/>
      <point x="299.0" y="462.0"/>
      <point x="335.0" y="499.0"/>
    </contour>
    <contour>
      <point x="335.0" y="130.0" type="curve" smooth="yes"/>
      <point x="335.0" y="183.0"/>
      <point x="299.0" y="220.0"/>
      <point x="235.0" y="220.0" type="curve" smooth="yes"/>
      <point x="172.0" y="220.0"/>
      <point x="136.0" y="183.0"/>
      <point x="136.0" y="130.0" type="curve" smooth="yes"/>
      <point x="136.0" y="75.0"/>
      <point x="172.0" y="38.0"/>
      <point x="235.0" y="38.0" type="curve" smooth="yes"/>
      <point x="299.0" y="38.0"/>
      <point x="335.0" y="75.0"/>
    </contour>
    <component base="minus"/>
  </outline>
</glyph>
<glyph name="dcroat" format="2">
  <advance width="583"/>
  <unicode hex="0111"/>
  <outline>
    <contour>
      <point x="580.0" y="654.0" type="line"/>
      <point x="206.0" y="654.0" type="line"/>
      <point x="206.0" y="565.0" type="line"/>
      <point x="580.0" y="565.0" type="line"/>
    </contour>
    <contour>
      <point x="211.0" y="523.0" type="curve" smooth="yes"/>
      <point x="97.0" y="523.0"/>
      <point x="15.0" y="410.0"/>
      <point x="15.0" y="250.0" type="curve" smooth="yes"/>
      <point x="15.0" y="94.0"/>
      <point x="89.0" y="-10.0"/>
      <point x="204.0" y="-10.0" type="curve" smooth="yes"/>
      <point x="293.0" y="-10.0"/>
      <point x="330.0" y="48.0"/>
      <point x="369.0" y="163.0" type="curve"/>
      <point x="343.0" y="220.0" type="line"/>
      <point x="321.0" y="145.0"/>
      <point x="310.0" y="97.0"/>
      <point x="284.0" y="97.0" type="curve" smooth="yes"/>
      <point x="259.0" y="97.0"/>
      <point x="252.0" y="150.0"/>
      <point x="252.0" y="250.0" type="curve" smooth="yes"/>
      <point x="252.0" y="352.0"/>
      <point x="260.0" y="416.0"/>
      <point x="292.0" y="416.0" type="curve" smooth="yes"/>
      <point x="324.0" y="416.0"/>
      <point x="330.0" y="369.0"/>
      <point x="344.0" y="304.0" type="curve"/>
      <point x="382.0" y="322.0" type="line"/>
      <point x="365.0" y="455.0"/>
      <point x="313.0" y="523.0"/>
    </contour>
    <contour>
      <point x="321.0" y="735.0" type="line"/>
      <point x="321.0" y="108.0" type="line"/>
      <point x="331.0" y="121.0" type="line"/>
      <point x="331.0" y="0.0" type="line"/>
      <point x="573.0" y="0.0" type="line"/>
      <point x="573.0" y="75.0" type="line"/>
      <point x="567.0" y="77.0" type="line" smooth="yes"/>
      <point x="555.0" y="82.0"/>
      <point x="554.0" y="86.0"/>
      <point x="554.0" y="104.0" type="curve" smooth="yes"/>
      <point x="554.0" y="735.0" type="line"/>
    </contour>
  </outline>
</glyph>
<glyph name="hbar" format="2">
  <advance width="580"/>
  <unicode hex="0127"/>
  <outline>
    <contour>
      <point x="577.0" y="0.0" type="line"/>
      <point x="577.0" y="72.0" type="line"/>
      <point x="576.0" y="72.0" type="line" smooth="yes"/>
      <point x="565.0" y="72.0"/>
      <point x="557.0" y="78.0"/>
      <point x="557.0" y="99.0" type="curve"/>
      <point x="557.0" y="345.0" type="line" smooth="yes"/>
      <point x="557.0" y="461.0"/>
      <point x="497.0" y="523.0"/>
      <point x="406.0" y="523.0" type="curve" smooth="yes"/>
      <point x="332.0" y="523.0"/>
      <point x="276.0" y="475.0"/>
      <point x="257.0" y="404.0" type="curve"/>
      <point x="263.0" y="325.0" type="line"/>
      <point x="272.0" y="375.0"/>
      <point x="286.0" y="407.0"/>
      <point x="304.0" y="407.0" type="curve" smooth="yes"/>
      <point x="320.0" y="407.0"/>
      <point x="325.0" y="389.0"/>
      <point x="325.0" y="352.0" type="curve" smooth="yes"/>
      <point x="325.0" y="80.0" type="line" smooth="yes"/>
      <point x="325.0" y="74.0"/>
      <point x="315.0" y="72.0"/>
      <point x="308.0" y="72.0" type="curve" smooth="yes"/>
      <point x="307.0" y="72.0" type="line"/>
      <point x="307.0" y="0.0" type="line"/>
    </contour>
    <contour>
      <point x="377.0" y="654.0" type="line"/>
      <point x="3.0" y="654.0" type="line"/>
      <point x="3.0" y="565.0" type="line"/>
      <point x="377.0" y="565.0" type="line"/>
    </contour>
    <contour>
      <point x="30.0" y="735.0" type="line"/>
      <point x="30.0" y="99.0" type="line"/>
      <point x="30.0" y="78.0"/>
      <point x="21.0" y="72.0"/>
      <point x="10.0" y="72.0" type="curve" smooth="yes"/>
      <point x="10.0" y="72.0" type="line"/>
      <point x="10.0" y="0.0" type="line"/>
      <point x="280.0" y="0.0" type="line"/>
      <point x="280.0" y="72.0" type="line"/>
      <point x="277.0" y="72.0" type="line" smooth="yes"/>
      <point x="272.0" y="72.0"/>
      <point x="262.0" y="74.0"/>
      <point x="262.0" y="80.0" type="curve"/>
      <point x="262.0" y="735.0" type="line"/>
    </contour>
  </outline>
</glyph>
<glyph name="OE" format="2">
  <advance width="862"/>
  <unicode hex="0152"/>
  <outline>
    <contour>
      <point x="376.0" y="88.0" type="line" smooth="yes"/>
      <point x="321.0" y="88.0"/>
      <point x="277.0" y="183.0"/>
      <point x="277.0" y="353.0" type="curve" smooth="yes"/>
      <point x="277.0" y="523.0"/>
      <point x="321.0" y="622.0"/>
      <point x="376.0" y="622.0" type="curve" smooth="yes"/>
      <point x="400.0" y="622.0" type="line"/>
      <point x="400.0" y="88.0" type="line"/>
    </contour>
    <contour>
      <point x="625.0" y="401.0" type="curve"/>
      <point x="625.0" y="326.0" type="line"/>
      <point x="675.0" y="321.0"/>
      <point x="726.0" y="317.0"/>
      <point x="776.0" y="313.0" type="curve"/>
      <point x="776.0" y="414.0" type="line"/>
      <point x="726.0" y="410.0"/>
      <point x="675.0" y="406.0"/>
    </contour>
    <contour>
      <point x="849.0" y="0.0" type="line"/>
      <point x="849.0" y="232.0" type="line"/>
      <point x="765.0" y="232.0" type="line"/>
      <point x="756.0" y="130.0" type="line" smooth="yes"/>
      <point x="752.0" y="94.0"/>
      <point x="729.0" y="87.0"/>
      <point x="667.0" y="87.0" type="curve" smooth="yes"/>
      <point x="647.0" y="87.0" type="line"/>
      <point x="647.0" y="623.0" type="line"/>
      <point x="674.0" y="623.0" type="line" smooth="yes"/>
      <point x="710.0" y="623.0"/>
      <point x="740.0" y="616.0"/>
      <point x="741.0" y="580.0" type="curve" smooth="yes"/>
      <point x="745.0" y="503.0" type="line"/>
      <point x="827.0" y="503.0" type="line"/>
      <point x="827.0" y="710.0" type="line"/>
      <point x="364.0" y="710.0" type="line"/>
      <point x="164.0" y="710.0"/>
      <point x="21.0" y="578.0"/>
      <point x="21.0" y="353.0" type="curve" smooth="yes"/>
      <point x="21.0" y="127.0"/>
      <point x="164.0" y="0.0"/>
      <point x="364.0" y="0.0" type="curve"/>
    </contour>
  </outline>
</glyph>
<glyph name="oe" format="2">
  <advance width="832"/>
  <unicode hex="0153"/>
  <outline>
    <contour>
      <point x="271.0" y="-10.0" type="curve" smooth="yes"/>
      <point x="425.0" y="-10.0"/>
      <point x="499.0" y="116.0"/>
      <point x="499.0" y="257.0" type="curve" smooth="yes"/>
      <point x="499.0" y="396.0"/>
      <point x="425.0" y="523.0"/>
      <point x="271.0" y="523.0" type="curve" smooth="yes"/>
      <point x="114.0" y="523.0"/>
      <point x="15.0" y="415.0"/>
      <point x="15.0" y="257.0" type="curve" smooth="yes"/>
      <point x="15.0" y="98.0"/>
      <point x="114.0" y="-10.0"/>
    </contour>
    <contour>
      <point x="286.0" y="80.0" type="curve" smooth="yes"/>
      <point x="260.0" y="80.0"/>
      <point x="252.0" y="135.0"/>
      <point x="252.0" y="257.0" type="curve" smooth="yes"/>
      <point x="252.0" y="378.0"/>
      <point x="260.0" y="434.0"/>
      <point x="286.0" y="434.0" type="curve" smooth="yes"/>
      <point x="312.0" y="434.0"/>
      <point x="321.0" y="378.0"/>
      <point x="321.0" y="257.0" type="curve" smooth="yes"/>
      <point x="321.0" y="135.0"/>
      <point x="312.0" y="80.0"/>
    </contour>
    <contour>
      <point x="605.0" y="-10.0" type="curve" smooth="yes"/>
      <point x="705.0" y="-10.0"/>
      <point x="770.0" y="45.0"/>
      <point x="804.0" y="124.0" type="curve"/>
      <point x="734.0" y="172.0" type="line"/>
      <point x="716.0" y="129.0"/>
      <point x="686.0" y="84.0"/>
      <point x="636.0" y="84.0" type="curve" smooth="yes"/>
      <point x="564.0" y="84.0"/>
      <point x="553.0" y="144.0"/>
      <point x="553.0" y="255.0" type="curve" smooth="yes"/>
      <point x="553.0" y="387.0"/>
      <point x="564.0" y="434.0"/>
      <point x="582.0" y="434.0" type="curve"/>
      <point x="601.0" y="434.0"/>
      <point x="608.0" y="402.0"/>
      <point x="609.0" y="268.0" type="curve"/>
      <point x="628.0" y="304.0" type="line"/>
      <point x="427.0" y="304.0" type="line"/>
      <point x="428.0" y="222.0" type="line"/>
      <point x="818.0" y="222.0" type="line"/>
      <point x="817.0" y="423.0"/>
      <point x="733.0" y="523.0"/>
      <point x="589.0" y="523.0" type="curve" smooth="yes"/>
      <point x="457.0" y="523.0"/>
      <point x="380.0" y="398.0"/>
      <point x="380.0" y="255.0" type="curve" smooth="yes"/>
      <point x="380.0" y="110.0"/>
      <point x="453.0" y="-10.0"/>
    </contour>
  </outline>
</glyph>
<glyph name="Uogonek" format="2">
  <advance width="614"/>
  <unicode hex="0172"/>
  <outline>
    <contour>
      <point x="380.0" y="-245.0" type="curve" smooth="yes"/>
      <point x="455.0" y="-245.0"/>
      <point x="498.0" y="-214.0"/>
      <point x="530.0" y="-169.0" type="curve"/>
      <point x="486.0" y="-120.0" type="line"/>
      <point x="479.0" y="-129.0"/>
      <point x="464.0" y="-148.0"/>
      <point x="442.0" y="-148.0" type="curve" smooth="yes"/>
      <point x="423.0" y="-148.0"/>
      <point x="411.0" y="-135.0"/>
      <point x="411.0" y="-107.0" type="curve" smooth="yes"/>
      <point x="411.0" y="-62.0"/>
      <point x="418.0" y="-14.0"/>
      <point x="494.0" y="59.0" type="curve" smooth="yes"/>
      <point x="541.0" y="109.0"/>
      <point x="564.0" y="180.0"/>
      <point x="564.0" y="279.0" type="curve" smooth="yes"/>
      <point x="564.0" y="596.0" type="line" smooth="yes"/>
      <point x="564.0" y="625.0"/>
      <point x="576.0" y="633.0"/>
      <point x="593.0" y="633.0" type="curve" smooth="yes"/>
      <point x="601.0" y="633.0" type="line"/>
      <point x="601.0" y="710.0" type="line"/>
      <point x="438.0" y="710.0" type="line"/>
      <point x="438.0" y="633.0" type="line"/>
      <point x="445.0" y="633.0" type="line" smooth="yes"/>
      <point x="459.0" y="633.0"/>
      <point x="475.0" y="627.0"/>
      <point x="475.0" y="613.0" type="curve" smooth="yes"/>
      <point x="475.0" y="279.0" type="line" smooth="yes"/>
      <point x="475.0" y="149.0"/>
      <point x="442.0" y="96.0"/>
      <point x="385.0" y="96.0" type="curve" smooth="yes"/>
      <point x="318.0" y="96.0"/>
      <point x="297.0" y="144.0"/>
      <point x="297.0" y="279.0" type="curve" smooth="yes"/>
      <point x="297.0" y="623.0" type="line" smooth="yes"/>
      <point x="297.0" y="630.0"/>
      <point x="313.0" y="633.0"/>
      <point x="326.0" y="633.0" type="curve" smooth="yes"/>
      <point x="334.0" y="633.0" type="line"/>
      <point x="334.0" y="710.0" type="line"/>
      <point x="13.0" y="710.0" type="line"/>
      <point x="13.0" y="633.0" type="line"/>
      <point x="21.0" y="633.0" type="line" smooth="yes"/>
      <point x="39.0" y="633.0"/>
      <point x="50.0" y="626.0"/>
      <point x="50.0" y="597.0" type="curve" smooth="yes"/>
      <point x="50.0" y="279.0" type="line" smooth="yes"/>
      <point x="50.0" y="76.0"/>
      <point x="152.0" y="-10.0"/>
      <point x="320.0" y="-10.0" type="curve" smooth="yes"/>
      <point x="354.0" y="-10.0"/>
      <point x="387.0" y="-4.0"/>
      <point x="416.0" y="9.0" type="curve"/>
      <point x="460.0" y="52.0" type="line"/>
      <point x="323.0" y="-7.0"/>
      <point x="251.0" y="-54.0"/>
      <point x="251.0" y="-140.0" type="curve" smooth="yes"/>
      <point x="251.0" y="-208.0"/>
      <point x="302.0" y="-245.0"/>
    </contour>
  </outline>
</glyph>
<glyph name="uogonek" format="2">
  <advance width="581"/>
  <unicode hex="0173"/>
  <outline>
    <contour>
      <point x="261.0" y="513.0" type="line"/>
      <point x="8.0" y="513.0" type="line"/>
      <point x="8.0" y="438.0" type="line"/>
      <point x="14.0" y="436.0" type="line" smooth="yes"/>
      <point x="25.0" y="430.0"/>
      <point x="28.0" y="425.0"/>
      <point x="28.0" y="407.0" type="curve" smooth="yes"/>
      <point x="28.0" y="168.0" type="line" smooth="yes"/>
      <point x="28.0" y="52.0"/>
      <point x="88.0" y="-10.0"/>
      <point x="179.0" y="-10.0" type="curve" smooth="yes"/>
      <point x="252.0" y="-10.0"/>
      <point x="316.0" y="32.0"/>
      <point x="342.0" y="116.0" type="curve"/>
      <point x="342.0" y="228.0" type="line"/>
      <point x="319.0" y="138.0"/>
      <point x="301.0" y="106.0"/>
      <point x="281.0" y="106.0" type="curve" smooth="yes"/>
      <point x="266.0" y="106.0"/>
      <point x="261.0" y="126.0"/>
      <point x="261.0" y="166.0" type="curve" smooth="yes"/>
    </contour>
    <contour>
      <point x="553.0" y="513.0" type="line"/>
      <point x="286.0" y="513.0" type="line"/>
      <point x="286.0" y="438.0" type="line"/>
      <point x="293.0" y="436.0" type="line" smooth="yes"/>
      <point x="304.0" y="431.0"/>
      <point x="320.0" y="425.0"/>
      <point x="320.0" y="407.0" type="curve" smooth="yes"/>
      <point x="320.0" y="108.0" type="line"/>
      <point x="333.0" y="119.0" type="line"/>
      <point x="333.0" y="0.0" type="line"/>
      <point x="573.0" y="0.0" type="line"/>
      <point x="573.0" y="75.0" type="line"/>
      <point x="566.0" y="77.0" type="line" smooth="yes"/>
      <point x="554.0" y="82.0"/>
      <point x="553.0" y="86.0"/>
      <point x="553.0" y="104.0" type="curve" smooth="yes"/>
    </contour>
    <contour>
      <point x="447.0" y="42.0" type="line"/>
      <point x="303.0" y="-7.0"/>
      <point x="230.0" y="-54.0"/>
      <point x="230.0" y="-140.0" type="curve" smooth="yes"/>
      <point x="230.0" y="-208.0"/>
      <point x="280.0" y="-245.0"/>
      <point x="359.0" y="-245.0" type="curve" smooth="yes"/>
      <point x="434.0" y="-245.0"/>
      <point x="477.0" y="-214.0"/>
      <point x="509.0" y="-169.0" type="curve"/>
      <point x="466.0" y="-120.0" type="line"/>
      <point x="458.0" y="-129.0"/>
      <point x="444.0" y="-148.0"/>
      <point x="421.0" y="-148.0" type="curve" smooth="yes"/>
      <point x="401.0" y="-148.0"/>
      <point x="391.0" y="-135.0"/>
      <point x="391.0" y="-107.0" type="curve" smooth="yes"/>
      <point x="391.0" y="-72.0"/>
      <point x="410.0" y="-28.0"/>
      <point x="486.0" y="14.0" type="curve"/>
    </contour>
  </outline>
</glyph>
<glyph name="Uhorn" format="2">
  <advance width="695"/>
  <unicode hex="01AF"/>
  <anchor x="346" y="663" name="top"/>
  <outline>
    <contour>
      <point x="586.0" y="639.0" type="curve" smooth="yes"/>
      <point x="670.0" y="655.0"/>
      <point x="732.0" y="723.0"/>
      <point x="732.0" y="877.0" type="curve"/>
      <point x="581.0" y="877.0" type="line"/>
      <point x="577.0" y="743.0"/>
      <point x="568.0" y="710.0"/>
      <point x="465.0" y="710.0" type="curve" smooth="yes"/>
      <point x="438.0" y="710.0" type="line"/>
      <point x="438.0" y="633.0" type="line"/>
      <point x="445.0" y="633.0" type="line" smooth="yes"/>
      <point x="459.0" y="633.0"/>
      <point x="475.0" y="627.0"/>
      <point x="475.0" y="613.0" type="curve" smooth="yes"/>
      <point x="475.0" y="279.0" type="line" smooth="yes"/>
      <point x="475.0" y="149.0"/>
      <point x="442.0" y="96.0"/>
      <point x="385.0" y="96.0" type="curve" smooth="yes"/>
      <point x="318.0" y="96.0"/>
      <point x="297.0" y="144.0"/>
      <point x="297.0" y="279.0" type="curve" smooth="yes"/>
      <point x="297.0" y="623.0" type="line" smooth="yes"/>
      <point x="297.0" y="630.0"/>
      <point x="313.0" y="633.0"/>
      <point x="326.0" y="633.0" type="curve" smooth="yes"/>
      <point x="334.0" y="633.0" type="line"/>
      <point x="334.0" y="710.0" type="line"/>
      <point x="13.0" y="710.0" type="line"/>
      <point x="13.0" y="633.0" type="line"/>
      <point x="21.0" y="633.0" type="line" smooth="yes"/>
      <point x="39.0" y="633.0"/>
      <point x="50.0" y="626.0"/>
      <point x="50.0" y="597.0" type="curve" smooth="yes"/>
      <point x="50.0" y="279.0" type="line" smooth="yes"/>
      <point x="50.0" y="76.0"/>
      <point x="152.0" y="-10.0"/>
      <point x="320.0" y="-10.0" type="curve" smooth="yes"/>
      <point x="459.0" y="-10.0"/>
      <point x="564.0" y="73.0"/>
      <point x="564.0" y="279.0" type="curve" smooth="yes"/>
      <point x="564.0" y="600.0" type="line" smooth="yes"/>
      <point x="564.0" y="624.0"/>
      <point x="569.0" y="634.0"/>
    </contour>
  </outline>
</glyph>
<glyph name="breve" format="2">
  <advance width="421"/>
  <unicode hex="02D8"/>
  <anchor x="210" y="517" name="_top"/>
  <outline>
    <contour>
      <point x="210.0" y="558.0" type="curve" smooth="yes"/>
      <point x="116.0" y="558.0"/>
      <point x="52.0" y="621.0"/>
      <point x="56.0" y="748.0" type="curve"/>
      <point x="154.0" y="748.0" type="line"/>
      <point x="160.0" y="698.0"/>
      <point x="178.0" y="687.0"/>
      <point x="213.0" y="687.0" type="curve" smooth="yes"/>
      <point x="248.0" y="687.0"/>
      <point x="265.0" y="698.0"/>
      <point x="271.0" y="748.0" type="curve"/>
      <point x="364.0" y="748.0" type="line"/>
      <point x="368.0" y="621.0"/>
      <point x="304.0" y="558.0"/>
    </contour>
  </outline>
</glyph>
<glyph name="Delta" format="2">
  <advance width="678"/>
  <unicode hex="0394"/>
  <outline>
    <contour>
      <point x="18.0" y="0.0" type="line"/>
      <point x="661.0" y="0.0" type="line"/>
      <point x="661.0" y="128.0" type="line"/>
      <point x="424.0" y="710.0" type="line"/>
      <point x="254.0" y="710.0" type="line"/>
      <point x="18.0" y="128.0" type="line"/>
    </contour>
    <contour>
      <point x="441.0" y="73.0" type="line"/>
      <point x="569.0" y="149.0" type="line"/>
      <point x="64.0" y="149.0" type="line"/>
      <point x="87.0" y="97.0" type="line"/>
      <point x="326.0" y="690.0" type="line"/>
      <point x="228.0" y="643.0" type="line"/>
    </contour>
  </outline>
</glyph>
<glyph name="colonmonetary" format="2">
  <advance width="471"/>
  <unicode hex="20A1"/>
  <outline>
    <contour>
      <point x="297.0" y="717.0" type="curve" smooth="yes"/>
      <point x="144.0" y="717.0"/>
      <point x="18.0" y="602.0"/>
      <point x="18.0" y="355.0" type="curve" smooth="yes"/>
      <point x="18.0" y="109.0"/>
      <point x="127.0" y="-7.0"/>
      <point x="276.0" y="-7.0" type="curve" smooth="yes"/>
      <point x="384.0" y="-7.0"/>
      <point x="435.0" y="67.0"/>
      <point x="461.0" y="173.0" type="curve"/>
      <point x="386.0" y="215.0" type="line"/>
      <point x="370.0" y="148.0"/>
      <point x="350.0" y="85.0"/>
      <point x="288.0" y="85.0" type="curve" smooth="yes"/>
      <point x="220.0" y="85.0"/>
      <point x="196.0" y="121.0"/>
      <point x="196.0" y="355.0" type="curve" smooth="yes"/>
      <point x="196.0" y="551.0"/>
      <point x="221.0" y="624.0"/>
      <point x="307.0" y="624.0" type="curve" smooth="yes"/>
      <point x="352.0" y="624.0"/>
      <point x="401.0" y="617.0"/>
      <point x="423.0" y="612.0" type="curve"/>
      <point x="424.0" y="622.0"/>
      <point x="365.0" y="644.0"/>
      <point x="338.0" y="630.0" type="curve"/>
      <point x="338.0" y="517.0" type="line"/>
      <point x="466.0" y="517.0" type="line"/>
      <point x="466.0" y="667.0" type="line"/>
      <point x="455.0" y="682.0"/>
      <point x="388.0" y="717.0"/>
    </contour>
    <contour>
      <point x="265.0" y="790.0" type="line"/>
      <point x="254.0" y="669.0" type="line"/>
      <point x="252.0" y="648.0" type="line"/>
      <point x="198.0" y="106.0" type="line"/>
      <point x="193.0" y="71.0" type="line"/>
      <point x="175.0" y="-120.0" type="line"/>
      <point x="221.0" y="-120.0" type="line"/>
      <point x="239.0" y="61.0" type="line"/>
      <point x="240.0" y="71.0" type="line"/>
      <point x="300.0" y="669.0" type="line"/>
      <point x="301.0" y="679.0" type="line"/>
      <point x="312.0" y="790.0" type="line"/>
    </contour>
    <contour>
      <point x="357.0" y="790.0" type="line"/>
      <point x="348.0" y="697.0" type="line"/>
      <point x="348.0" y="686.0" type="line"/>
      <point x="286.0" y="69.0" type="line"/>
      <point x="284.0" y="52.0" type="line"/>
      <point x="266.0" y="-120.0" type="line"/>
      <point x="313.0" y="-120.0" type="line"/>
      <point x="329.0" y="48.0" type="line"/>
      <point x="330.0" y="58.0" type="line"/>
      <point x="390.0" y="661.0" type="line"/>
      <point x="392.0" y="675.0" type="line"/>
      <point x="403.0" y="790.0" type="line"/>
    </contour>
  </outline>
</glyph>
<glyph name="won" format="2">
  <advance width="472"/>
  <unicode hex="20A9"/>
  <outline>
    <contour>
      <point x="11.0" y="710.0" type="line"/>
      <point x="11.0" y="633.0" type="line"/>
      <point x="17.0" y="633.0" type="line" smooth="yes"/>
      <point x="25.0" y="633.0"/>
      <point x="32.0" y="627.0"/>
      <point x="33.0" y="604.0" type="curve" smooth="yes"/>
      <point x="51.0" y="0.0" type="line"/>
      <point x="217.0" y="0.0" type="line"/>
      <point x="242.0" y="683.0" type="line"/>
      <point x="233.0" y="689.0" type="line"/>
      <point x="245.0" y="0.0" type="line"/>
      <point x="411.0" y="0.0" type="line"/>
      <point x="434.0" y="590.0" type="line" smooth="yes"/>
      <point x="436.0" y="623.0"/>
      <point x="444.0" y="633.0"/>
      <point x="456.0" y="633.0" type="curve" smooth="yes"/>
      <point x="461.0" y="633.0" type="line"/>
      <point x="461.0" y="710.0" type="line"/>
      <point x="355.0" y="710.0" type="line"/>
      <point x="355.0" y="633.0" type="line"/>
      <point x="357.0" y="633.0" type="line" smooth="yes"/>
      <point x="363.0" y="633.0"/>
      <point x="370.0" y="629.0"/>
      <point x="370.0" y="622.0" type="curve"/>
      <point x="347.0" y="20.0" type="line"/>
      <point x="355.0" y="25.0" type="line"/>
      <point x="336.0" y="710.0" type="line"/>
      <point x="181.0" y="710.0" type="line"/>
      <point x="156.0" y="12.0" type="line"/>
      <point x="163.0" y="15.0" type="line"/>
      <point x="147.0" y="623.0" type="line"/>
      <point x="147.0" y="630.0"/>
      <point x="153.0" y="633.0"/>
      <point x="157.0" y="633.0" type="curve" smooth="yes"/>
      <point x="163.0" y="633.0" type="line"/>
      <point x="163.0" y="710.0" type="line"/>
    </contour>
    <contour>
      <point x="9.0" y="473.0" type="line"/>
      <point x="9.0" y="391.0" type="line"/>
      <point x="128.0" y="391.0" type="line"/>
      <point x="147.0" y="415.0" type="line"/>
      <point x="191.0" y="415.0" type="line"/>
      <point x="196.0" y="473.0" type="line"/>
    </contour>
    <contour>
      <point x="300.0" y="415.0" type="line"/>
      <point x="379.0" y="415.0" type="line"/>
      <point x="403.0" y="391.0" type="line"/>
      <point x="463.0" y="391.0" type="line"/>
      <point x="463.0" y="473.0" type="line"/>
      <point x="295.0" y="473.0" type="line"/>
    </contour>
    <contour>
      <point x="195.0" y="246.0" type="line"/>
      <point x="292.0" y="246.0" type="line"/>
      <point x="298.0" y="304.0" type="line"/>
      <point x="235.0" y="304.0" type="line"/>
      <point x="209.0" y="304.0" type="line"/>
    </contour>
    <contour>
      <point x="113.0" y="318.0" type="line"/>
      <point x="9.0" y="318.0" type="line"/>
      <point x="9.0" y="236.0" type="line"/>
      <point x="117.0" y="236.0" type="line"/>
    </contour>
    <contour>
      <point x="386.0" y="236.0" type="line"/>
      <point x="463.0" y="236.0" type="line"/>
      <point x="463.0" y="318.0" type="line"/>
      <point x="403.0" y="318.0" type="line"/>
    </contour>
  </outline>
</glyph>
<glyph name="manat" format="2">
  <advance width="471"/>
  <unicode hex="20BC"/>
  <outline>
    <contour>
      <point x="207.0" y="720.0" type="line"/>
      <point x="207.0" y="160.0" type="line"/>
      <point x="264.0" y="160.0" type="line"/>
      <point x="264.0" y="720.0" type="line"/>
    </contour>
    <contour>
      <point x="235.0" y="505.0" type="curve" smooth="yes"/>
      <point x="295.0" y="505.0"/>
      <point x="303.0" y="395.0"/>
      <point x="284.0" y="0.0" type="curve"/>
      <point x="465.0" y="0.0" type="line"/>
      <point x="465.0" y="346.0"/>
      <point x="382.0" y="590.0"/>
      <point x="235.0" y="590.0" type="curve" smooth="yes"/>
      <point x="89.0" y="590.0"/>
      <point x="6.0" y="346.0"/>
      <point x="6.0" y="0.0" type="curve"/>
      <point x="188.0" y="0.0" type="line"/>
      <point x="168.0" y="395.0"/>
      <point x="175.0" y="505.0"/>
    </contour>
  </outline>
</glyph>
<glyph name="ruble" format="2">
  <advance width="471"/>
  <unicode hex="20BD"/>
  <outline>
    <contour>
      <point x="6.0" y="379.0" type="line"/>
      <point x="228.0" y="379.0" type="line" smooth="yes"/>
      <point x="252.0" y="379.0"/>
      <point x="271.0" y="421.0"/>
      <point x="271.0" y="508.0" type="curve" smooth="yes"/>
      <point x="271.0" y="589.0"/>
      <point x="252.0" y="622.0"/>
      <point x="232.0" y="622.0" type="curve" smooth="yes"/>
      <point x="239.0" y="622.0" type="line"/>
      <point x="239.0" y="87.0" type="line"/>
      <point x="239.0" y="80.0"/>
      <point x="254.0" y="77.0"/>
      <point x="267.0" y="77.0" type="curve" smooth="yes"/>
      <point x="271.0" y="77.0" type="line"/>
      <point x="271.0" y="0.0" type="line"/>
      <point x="6.0" y="0.0" type="line"/>
      <point x="6.0" y="77.0" type="line"/>
      <point x="10.0" y="77.0" type="line" smooth="yes"/>
      <point x="22.0" y="77.0"/>
      <point x="29.0" y="84.0"/>
      <point x="29.0" y="113.0" type="curve" smooth="yes"/>
      <point x="29.0" y="597.0" type="line" smooth="yes"/>
      <point x="29.0" y="626.0"/>
      <point x="22.0" y="633.0"/>
      <point x="10.0" y="633.0" type="curve" smooth="yes"/>
      <point x="6.0" y="633.0" type="line"/>
      <point x="6.0" y="710.0" type="line"/>
      <point x="242.0" y="710.0" type="line" smooth="yes"/>
      <point x="391.0" y="710.0"/>
      <point x="471.0" y="640.0"/>
      <point x="471.0" y="512.0" type="curve" smooth="yes"/>
      <point x="471.0" y="379.0"/>
      <point x="384.0" y="300.0"/>
      <point x="241.0" y="300.0" type="curve" smooth="yes"/>
      <point x="6.0" y="300.0" type="line"/>
    </contour>
    <contour>
      <point x="320.0" y="164.0" type="line"/>
      <point x="6.0" y="164.0" type="line"/>
      <point x="6.0" y="243.0" type="line"/>
      <point x="320.0" y="243.0" type="line"/>
    </contour>
  </outline>
</glyph>
<glyph name="partialdiff" format="2">
  <advance width="506"/>
  <unicode hex="2202"/>
  <outline>
    <contour>
      <point x="218.0" y="-10.0" type="curve" smooth="yes"/>
      <point x="388.0" y="-10.0"/>
      <point x="499.0" y="171.0"/>
      <point x="499.0" y="418.0" type="curve" smooth="yes"/>
      <point x="499.0" y="634.0"/>
      <point x="387.0" y="745.0"/>
      <point x="240.0" y="745.0" type="curve" smooth="yes"/>
      <point x="177.0" y="745.0"/>
      <point x="119.0" y="727.0"/>
      <point x="72.0" y="698.0" type="curve"/>
      <point x="101.0" y="620.0" type="line"/>
      <point x="134.0" y="639.0"/>
      <point x="163.0" y="655.0"/>
      <point x="196.0" y="655.0" type="curve" smooth="yes"/>
      <point x="258.0" y="655.0"/>
      <point x="281.0" y="600.0"/>
      <point x="281.0" y="468.0" type="curve" smooth="yes"/>
      <point x="281.0" y="276.0"/>
      <point x="260.0" y="75.0"/>
      <point x="238.0" y="75.0" type="curve" smooth="yes"/>
      <point x="225.0" y="75.0"/>
      <point x="224.0" y="111.0"/>
      <point x="224.0" y="194.0" type="curve" smooth="yes"/>
      <point x="224.0" y="331.0"/>
      <point x="239.0" y="433.0"/>
      <point x="282.0" y="433.0" type="curve" smooth="yes"/>
      <point x="297.0" y="433.0"/>
      <point x="318.0" y="407.0"/>
      <point x="334.0" y="375.0" type="curve"/>
      <point x="330.0" y="381.0"/>
      <point x="327.0" y="415.0"/>
      <point x="338.0" y="478.0" type="curve"/>
      <point x="339.0" y="490.0"/>
      <point x="323.0" y="518.0"/>
      <point x="258.0" y="518.0" type="curve" smooth="yes"/>
      <point x="123.0" y="518.0"/>
      <point x="7.0" y="375.0"/>
      <point x="7.0" y="217.0" type="curve" smooth="yes"/>
      <point x="7.0" y="85.0"/>
      <point x="66.0" y="-10.0"/>
    </contour>
  </outline>
</glyph>
<glyph name="emptyset" format="2">
  <advance width="586"/>
  <unicode hex="2205"/>
  <outline>
    <contour>
      <point x="71.0" y="-51.0" type="line"/>
      <point x="558.0" y="544.0" type="line"/>
      <point x="514.0" y="591.0" type="line"/>
      <point x="27.0" y="-4.0" type="line"/>
    </contour>
    <contour>
      <point x="293.0" y="-10.0" type="curve" smooth="yes"/>
      <point x="423.0" y="-10.0"/>
      <point x="530.0" y="110.0"/>
      <point x="530.0" y="270.0" type="curve" smooth="yes"/>
      <point x="530.0" y="430.0"/>
      <point x="423.0" y="550.0"/>
      <point x="293.0" y="550.0" type="curve" smooth="yes"/>
      <point x="162.0" y="550.0"/>
      <point x="55.0" y="430.0"/>
      <point x="55.0" y="270.0" type="curve" smooth="yes"/>
      <point x="55.0" y="110.0"/>
      <point x="162.0" y="-10.0"/>
    </contour>
    <contour>
      <point x="293.0" y="61.0" type="curve" smooth="yes"/>
      <point x="202.0" y="61.0"/>
      <point x="126.0" y="148.0"/>
      <point x="126.0" y="270.0" type="curve" smooth="yes"/>
      <point x="126.0" y="392.0"/>
      <point x="201.0" y="479.0"/>
      <point x="293.0" y="479.0" type="curve" smooth="yes"/>
      <point x="387.0" y="479.0"/>
      <point x="459.0" y="393.0"/>
      <point x="459.0" y="270.0" type="curve" smooth="yes"/>
      <point x="459.0" y="148.0"/>
      <point x="388.0" y="61.0"/>
    </contour>
  </outline>
</glyph>
<glyph name="infinity" format="2">
  <advance width="653"/>
  <unicode hex="221E"/>
  <outline>
    <contour>
      <point x="180.0" y="137.0" type="curve" smooth="yes"/>
      <point x="97.0" y="137.0"/>
      <point x="42.0" y="221.0"/>
      <point x="42.0" y="344.0" type="curve" smooth="yes"/>
      <point x="42.0" y="469.0"/>
      <point x="109.0" y="556.0"/>
      <point x="208.0" y="556.0" type="curve" smooth="yes"/>
      <point x="311.0" y="556.0"/>
      <point x="360.0" y="460.0"/>
      <point x="392.0" y="371.0" type="curve" smooth="yes"/>
      <point x="417.0" y="295.0"/>
      <point x="437.0" y="249.0"/>
      <point x="481.0" y="249.0" type="curve" smooth="yes"/>
      <point x="523.0" y="249.0"/>
      <point x="542.0" y="289.0"/>
      <point x="542.0" y="351.0" type="curve" smooth="yes"/>
      <point x="542.0" y="405.0"/>
      <point x="515.0" y="445.0"/>
      <point x="465.0" y="445.0" type="curve" smooth="yes"/>
      <point x="415.0" y="445.0"/>
      <point x="384.0" y="409.0"/>
      <point x="372.0" y="360.0" type="curve"/>
      <point x="319.0" y="361.0" type="line"/>
      <point x="337.0" y="464.0"/>
      <point x="394.0" y="556.0"/>
      <point x="473.0" y="556.0" type="curve" smooth="yes"/>
      <point x="555.0" y="556.0"/>
      <point x="610.0" y="472.0"/>
      <point x="610.0" y="348.0" type="curve" smooth="yes"/>
      <point x="610.0" y="224.0"/>
      <point x="544.0" y="137.0"/>
      <point x="445.0" y="137.0" type="curve" smooth="yes"/>
      <point x="346.0" y="137.0"/>
      <point x="294.0" y="228.0"/>
      <point x="260.0" y="331.0" type="curve" smooth="yes"/>
      <point x="240.0" y="399.0"/>
      <point x="219.0" y="443.0"/>
      <point x="177.0" y="443.0" type="curve" smooth="yes"/>
      <point x="133.0" y="443.0"/>
      <point x="110.0" y="403.0"/>
      <point x="110.0" y="346.0" type="curve" smooth="yes"/>
      <point x="110.0" y="283.0"/>
      <point x="138.0" y="247.0"/>
      <point x="187.0" y="247.0" type="curve" smooth="yes"/>
      <point x="238.0" y="247.0"/>
      <point x="269.0" y="285.0"/>
      <point x="281.0" y="332.0" type="curve"/>
      <point x="333.0" y="331.0" type="line"/>
      <point x="315.0" y="229.0"/>
      <point x="261.0" y="137.0"/>
    </contour>
  </outline>
</glyph>
<glyph name="notequal" format="2">
  <advance width="471"/>
  <unicode hex="2260"/>
  <outline>
    <contour>
      <point x="304.0" y="639.0" type="line"/>
      <point x="31.0" y="41.0" type="line"/>
      <point x="150.0" y="41.0" type="line"/>
      <point x="423.0" y="639.0" type="line"/>
    </contour>
    <component base="equal" xOffset="-8" yOffset="1"/>
  </outline>
</glyph>
<glyph name="lozenge" format="2">
  <advance width="523"/>
  <unicode hex="25CA"/>
  <outline>
    <contour>
      <point x="236.0" y="25.0" type="line"/>
      <point x="287.0" y="25.0" type="line"/>
      <point x="79.0" y="363.0" type="line"/>
      <point x="79.0" y="347.0" type="line"/>
      <point x="287.0" y="685.0" type="line"/>
      <point x="236.0" y="685.0" type="line"/>
      <point x="444.0" y="347.0" type="line"/>
      <point x="444.0" y="363.0" type="line"/>
    </contour>
    <contour>
      <point x="238.0" y="0.0" type="line"/>
      <point x="285.0" y="0.0" type="line"/>
      <point x="489.0" y="332.0" type="line"/>
      <point x="489.0" y="378.0" type="line"/>
      <point x="285.0" y="710.0" type="line"/>
      <point x="238.0" y="710.0" type="line"/>
      <point x="34.0" y="378.0" type="line"/>
      <point x="34.0" y="332.0" type="line"/>
    </contour>
  </outline>
</glyph>
<glyph name="six.den" format="2">
  <advance width="359"/>
  <unicode hex="E408"/>
  <outline>
    <contour>
      <point x="323.0" y="328.0" type="line"/>
      <point x="218.0" y="318.0"/>
      <point x="161.0" y="273.0"/>
      <point x="161.0" y="163.0" type="curve" smooth="yes"/>
      <point x="161.0" y="69.0"/>
      <point x="168.0" y="50.0"/>
      <point x="180.0" y="50.0" type="curve" smooth="yes"/>
      <point x="194.0" y="50.0"/>
      <point x="195.0" y="71.0"/>
      <point x="195.0" y="130.0" type="curve" smooth="yes"/>
      <point x="195.0" y="173.0"/>
      <point x="193.0" y="204.0"/>
      <point x="174.0" y="204.0" type="curve" smooth="yes"/>
      <point x="164.0" y="204.0"/>
      <point x="154.0" y="187.0"/>
      <point x="146.0" y="163.0" type="curve"/>
      <point x="147.0" y="203.0" type="line"/>
      <point x="153.0" y="227.0"/>
      <point x="180.0" y="258.0"/>
      <point x="227.0" y="258.0" type="curve" smooth="yes"/>
      <point x="296.0" y="258.0"/>
      <point x="340.0" y="215.0"/>
      <point x="340.0" y="136.0" type="curve" smooth="yes"/>
      <point x="340.0" y="44.0"/>
      <point x="277.0" y="-6.0"/>
      <point x="182.0" y="-6.0" type="curve" smooth="yes"/>
      <point x="74.0" y="-6.0"/>
      <point x="18.0" y="50.0"/>
      <point x="18.0" y="161.0" type="curve" smooth="yes"/>
      <point x="18.0" y="291.0"/>
      <point x="122.0" y="379.0"/>
      <point x="315.0" y="384.0" type="curve"/>
    </contour>
  </outline>
</glyph>
<glyph name="eight.den" format="2">
  <advance width="373"/>
  <unicode hex="E40A"/>
  <outline>
    <contour>
      <point x="186.0" y="210.0" type="curve" smooth="yes"/>
      <point x="71.0" y="210.0"/>
      <point x="17.0" y="174.0"/>
      <point x="17.0" y="111.0" type="curve" smooth="yes"/>
      <point x="17.0" y="41.0"/>
      <point x="68.0" y="-6.0"/>
      <point x="186.0" y="-6.0" type="curve" smooth="yes"/>
      <point x="306.0" y="-6.0"/>
      <point x="357.0" y="41.0"/>
      <point x="357.0" y="111.0" type="curve" smooth="yes"/>
      <point x="357.0" y="173.0"/>
      <point x="303.0" y="210.0"/>
    </contour>
    <contour>
      <point x="186.0" y="56.0" type="curve" smooth="yes"/>
      <point x="172.0" y="56.0"/>
      <point x="170.0" y="76.0"/>
      <point x="170.0" y="115.0" type="curve" smooth="yes"/>
      <point x="170.0" y="153.0"/>
      <point x="170.0" y="174.0"/>
      <point x="186.0" y="174.0" type="curve" smooth="yes"/>
      <point x="203.0" y="174.0"/>
      <point x="204.0" y="153.0"/>
      <point x="204.0" y="115.0" type="curve" smooth="yes"/>
      <point x="204.0" y="76.0"/>
      <point x="201.0" y="56.0"/>
    </contour>
    <contour>
      <point x="186.0" y="379.0" type="curve" smooth="yes"/>
      <point x="74.0" y="379.0"/>
      <point x="28.0" y="334.0"/>
      <point x="28.0" y="280.0" type="curve" smooth="yes"/>
      <point x="28.0" y="224.0"/>
      <point x="77.0" y="190.0"/>
      <point x="186.0" y="190.0" type="curve" smooth="yes"/>
      <point x="297.0" y="190.0"/>
      <point x="346.0" y="224.0"/>
      <point x="346.0" y="280.0" type="curve" smooth="yes"/>
      <point x="346.0" y="334.0"/>
      <point x="302.0" y="379.0"/>
    </contour>
    <contour>
      <point x="186.0" y="222.0" type="curve" smooth="yes"/>
      <point x="171.0" y="222.0"/>
      <point x="168.0" y="238.0"/>
      <point x="168.0" y="271.0" type="curve" smooth="yes"/>
      <point x="168.0" y="300.0"/>
      <point x="170.0" y="316.0"/>
      <point x="186.0" y="316.0" type="curve" smooth="yes"/>
      <point x="204.0" y="316.0"/>
      <point x="206.0" y="300.0"/>
      <point x="206.0" y="271.0" type="curve" smooth="yes"/>
      <point x="206.0" y="238.0"/>
      <point x="202.0" y="222.0"/>
    </contour>
  </outline>
</glyph>
<glyph name="F.alt" format="2">
  <advance width="528"/>
  <outline>
    <contour>
      <point x="299.0" y="623.0" type="line"/>
      <point x="344.0" y="623.0" type="line" smooth="yes"/>
      <point x="379.0" y="623.0"/>
      <point x="408.0" y="616.0"/>
      <point x="411.0" y="580.0" type="curve" smooth="yes"/>
      <point x="416.0" y="517.0" type="line"/>
      <point x="513.0" y="517.0" type="line"/>
      <point x="513.0" y="710.0" type="line"/>
      <point x="14.0" y="710.0" type="line"/>
      <point x="14.0" y="633.0" type="line"/>
      <point x="23.0" y="633.0" type="line" smooth="yes"/>
      <point x="40.0" y="633.0"/>
      <point x="52.0" y="626.0"/>
      <point x="52.0" y="597.0" type="curve" smooth="yes"/>
      <point x="52.0" y="113.0" type="line" smooth="yes"/>
      <point x="52.0" y="84.0"/>
      <point x="40.0" y="77.0"/>
      <point x="23.0" y="77.0" type="curve" smooth="yes"/>
      <point x="14.0" y="77.0" type="line"/>
      <point x="14.0" y="0.0" type="line"/>
      <point x="354.0" y="0.0" type="line"/>
      <point x="354.0" y="77.0" type="line"/>
      <point x="340.0" y="77.0" type="line" smooth="yes"/>
      <point x="321.0" y="77.0"/>
      <point x="299.0" y="78.0"/>
      <point x="299.0" y="113.0" type="curve" smooth="yes"/>
    </contour>
    <contour>
      <point x="236.0" y="396.0" type="line"/>
      <point x="236.0" y="313.0" type="line"/>
      <point x="340.0" y="313.0" type="line" smooth="yes"/>
      <point x="364.0" y="313.0"/>
      <point x="371.0" y="291.0"/>
      <point x="371.0" y="265.0" type="curve" smooth="yes"/>
      <point x="371.0" y="259.0" type="line"/>
      <point x="447.0" y="259.0" type="line"/>
      <point x="447.0" y="451.0" type="line"/>
      <point x="371.0" y="451.0" type="line"/>
      <point x="371.0" y="445.0" type="line" smooth="yes"/>
      <point x="371.0" y="420.0"/>
      <point x="364.0" y="396.0"/>
      <point x="340.0" y="396.0" type="curve" smooth="yes"/>
    </contour>
  </outline>
</glyph>
<glyph name="acute.uc" format="2">
  <advance width="421"/>
  <anchor x="155" y="727" name="_top"/>
  <outline>
    <contour>
      <point x="192.0" y="869.0" type="curve" smooth="yes"/>
      <point x="160.0" y="788.0" type="line"/>
      <point x="160.0" y="757.0" type="line"/>
      <point x="225.0" y="757.0" type="line"/>
      <point x="281.0" y="783.0" type="line" smooth="yes"/>
      <point x="349.0" y="805.0"/>
      <point x="375.0" y="834.0"/>
      <point x="375.0" y="878.0" type="curve" smooth="yes"/>
      <point x="375.0" y="918.0"/>
      <point x="344.0" y="948.0"/>
      <point x="298.0" y="948.0" type="curve" smooth="yes"/>
      <point x="248.0" y="948.0"/>
      <point x="219.0" y="921.0"/>
    </contour>
  </outline>
</glyph>
<glyph name="breve.uc" format="2">
  <advance width="421"/>
  <anchor x="210" y="694" name="_top"/>
  <outline>
    <contour>
      <point x="210.0" y="747.0" type="curve" smooth="yes"/>
      <point x="129.0" y="747.0"/>
      <point x="63.0" y="799.0"/>
      <point x="59.0" y="914.0" type="curve"/>
      <point x="158.0" y="914.0" type="line"/>
      <point x="160.0" y="875.0"/>
      <point x="179.0" y="863.0"/>
      <point x="213.0" y="863.0" type="curve" smooth="yes"/>
      <point x="246.0" y="863.0"/>
      <point x="265.0" y="875.0"/>
      <point x="268.0" y="914.0" type="curve"/>
      <point x="362.0" y="914.0" type="line"/>
      <point x="358.0" y="799.0"/>
      <point x="291.0" y="747.0"/>
    </contour>
  </outline>
</glyph>
<glyph name="breve_grave.uc" format="2">
  <advance width="429"/>
  <anchor x="221" y="744" name="_top"/>
  <outline>
    <contour>
      <point x="237.0" y="1033.0" type="curve" smooth="yes"/>
      <point x="265.0" y="959.0" type="line"/>
      <point x="265.0" y="931.0" type="line"/>
      <point x="207.0" y="931.0" type="line"/>
      <point x="159.0" y="955.0" type="line" smooth="yes"/>
      <point x="97.0" y="976.0"/>
      <point x="75.0" y="1003.0"/>
      <point x="75.0" y="1045.0" type="curve" smooth="yes"/>
      <point x="75.0" y="1081.0"/>
      <point x="101.0" y="1106.0"/>
      <point x="142.0" y="1106.0" type="curve" smooth="yes"/>
      <point x="186.0" y="1106.0"/>
      <point x="215.0" y="1081.0"/>
    </contour>
    <component base="breve.uc"/>
  </outline>
</glyph>
<glyph name="breve_hook" format="2">
  <advance width="429"/>
  <anchor x="210" y="525" name="_top"/>
  <outline>
    <contour>
      <point x="96.0" y="840.0" type="line"/>
      <point x="100.0" y="883.0"/>
      <point x="130.0" y="927.0"/>
      <point x="218.0" y="927.0" type="curve" smooth="yes"/>
      <point x="296.0" y="927.0"/>
      <point x="336.0" y="895.0"/>
      <point x="336.0" y="846.0" type="curve" smooth="yes"/>
      <point x="336.0" y="791.0"/>
      <point x="295.0" y="767.0"/>
      <point x="230.0" y="761.0" type="curve"/>
      <point x="255.0" y="788.0" type="line"/>
      <point x="255.0" y="738.0" type="line"/>
      <point x="169.0" y="738.0" type="line"/>
      <point x="169.0" y="801.0" type="line"/>
      <point x="213.0" y="804.0"/>
      <point x="230.0" y="817.0"/>
      <point x="230.0" y="841.0" type="curve"/>
      <point x="230.0" y="857.0"/>
      <point x="224.0" y="866.0"/>
      <point x="210.0" y="866.0" type="curve" smooth="yes"/>
      <point x="198.0" y="866.0"/>
      <point x="189.0" y="856.0"/>
      <point x="187.0" y="840.0" type="curve"/>
    </contour>
    <contour>
      <point x="210.0" y="559.0" type="curve" smooth="yes"/>
      <point x="116.0" y="559.0"/>
      <point x="52.0" y="617.0"/>
      <point x="56.0" y="727.0" type="curve"/>
      <point x="154.0" y="727.0" type="line"/>
      <point x="160.0" y="684.0"/>
      <point x="183.0" y="675.0"/>
      <point x="213.0" y="675.0" type="curve" smooth="yes"/>
      <point x="242.0" y="675.0"/>
      <point x="265.0" y="684.0"/>
      <point x="271.0" y="727.0" type="curve"/>
      <point x="364.0" y="727.0" type="line"/>
      <point x="368.0" y="617.0"/>
      <point x="304.0" y="559.0"/>
    </contour>
  </outline>
</glyph>
<glyph name="cent.alt" format="2">
  <advance width="471"/>
  <outline>
    <contour>
      <point x="313.0" y="82.0" type="curve" smooth="yes"/>
      <point x="271.0" y="82.0"/>
      <point x="251.0" y="145.0"/>
      <point x="251.0" y="256.0" type="curve" smooth="yes"/>
      <point x="251.0" y="362.0"/>
      <point x="261.0" y="433.0"/>
      <point x="290.0" y="433.0" type="curve" smooth="yes"/>
      <point x="297.0" y="433.0"/>
      <point x="303.0" y="418.0"/>
      <point x="306.0" y="390.0" type="curve"/>
      <point x="330.0" y="406.0"/>
      <point x="332.0" y="457.0"/>
      <point x="294.0" y="459.0" type="curve"/>
      <point x="294.0" y="326.0" type="line"/>
      <point x="450.0" y="326.0" type="line"/>
      <point x="450.0" y="460.0" type="line"/>
      <point x="434.0" y="479.0"/>
      <point x="381.0" y="523.0"/>
      <point x="269.0" y="523.0" type="curve" smooth="yes"/>
      <point x="119.0" y="523.0"/>
      <point x="14.0" y="423.0"/>
      <point x="14.0" y="256.0" type="curve" smooth="yes"/>
      <point x="14.0" y="88.0"/>
      <point x="122.0" y="-10.0"/>
      <point x="266.0" y="-10.0" type="curve" smooth="yes"/>
      <point x="374.0" y="-10.0"/>
      <point x="425.0" y="52.0"/>
      <point x="461.0" y="138.0" type="curve"/>
      <point x="394.0" y="185.0" type="line"/>
      <point x="377.0" y="140.0"/>
      <point x="352.0" y="82.0"/>
    </contour>
    <contour>
      <point x="316.0" y="490.0" type="line"/>
      <point x="316.0" y="623.0" type="line"/>
      <point x="226.0" y="623.0" type="line"/>
      <point x="226.0" y="489.0" type="line"/>
    </contour>
    <contour>
      <point x="226.0" y="45.0" type="line"/>
      <point x="226.0" y="-126.0" type="line"/>
      <point x="316.0" y="-126.0" type="line"/>
      <point x="316.0" y="47.0" type="line"/>
    </contour>
  </outline>
</glyph>
<glyph name="cent.proportional" format="2">
  <advance width="520"/>
  <outline>
    <contour>
      <point x="328.0" y="74.0" type="curve" smooth="yes"/>
      <point x="259.0" y="74.0"/>
      <point x="226.0" y="118.0"/>
      <point x="226.0" y="254.0" type="curve" smooth="yes"/>
      <point x="226.0" y="382.0"/>
      <point x="233.0" y="438.0"/>
      <point x="310.0" y="438.0" type="curve" smooth="yes"/>
      <point x="359.0" y="438.0"/>
      <point x="370.0" y="417.0"/>
      <point x="376.0" y="401.0" type="curve"/>
      <point x="419.0" y="388.0"/>
      <point x="445.0" y="434.0"/>
      <point x="360.0" y="459.0" type="curve"/>
      <point x="360.0" y="326.0" type="line"/>
      <point x="490.0" y="326.0" type="line"/>
      <point x="490.0" y="457.0" type="line"/>
      <point x="471.0" y="479.0"/>
      <point x="415.0" y="523.0"/>
      <point x="294.0" y="523.0" type="curve" smooth="yes"/>
      <point x="135.0" y="523.0"/>
      <point x="24.0" y="423.0"/>
      <point x="24.0" y="254.0" type="curve" smooth="yes"/>
      <point x="24.0" y="84.0"/>
      <point x="138.0" y="-14.0"/>
      <point x="291.0" y="-14.0" type="curve" smooth="yes"/>
      <point x="407.0" y="-14.0"/>
      <point x="465.0" y="47.0"/>
      <point x="502.0" y="134.0" type="curve"/>
      <point x="435.0" y="181.0" type="line"/>
      <point x="416.0" y="133.0"/>
      <point x="382.0" y="74.0"/>
    </contour>
    <contour>
      <point x="249.0" y="623.0" type="line"/>
      <point x="249.0" y="471.0" type="line"/>
      <point x="271.0" y="455.0" type="line"/>
      <point x="271.0" y="54.0" type="line"/>
      <point x="249.0" y="37.0" type="line"/>
      <point x="249.0" y="-126.0" type="line"/>
      <point x="350.0" y="-126.0" type="line"/>
      <point x="350.0" y="28.0" type="line"/>
      <point x="328.0" y="43.0" type="line"/>
      <point x="328.0" y="462.0" type="line"/>
      <point x="350.0" y="479.0" type="line"/>
      <point x="350.0" y="623.0" type="line"/>
    </contour>
  </outline>
</glyph>
<glyph name="eight.oldprop" format="2">
  <advance width="564"/>
  <outline>
    <contour>
      <point x="282.0" y="84.0" type="curve" smooth="yes"/>
      <point x="258.0" y="84.0"/>
      <point x="239.0" y="123.0"/>
      <point x="239.0" y="207.0" type="curve" smooth="yes"/>
      <point x="239.0" y="298.0"/>
      <point x="257.0" y="332.0"/>
      <point x="282.0" y="332.0" type="curve" smooth="yes"/>
      <point x="307.0" y="332.0"/>
      <point x="325.0" y="298.0"/>
      <point x="325.0" y="207.0" type="curve" smooth="yes"/>
      <point x="325.0" y="123.0"/>
      <point x="306.0" y="84.0"/>
    </contour>
    <contour>
      <point x="282.0" y="420.0" type="curve" smooth="yes"/>
      <point x="257.0" y="420.0"/>
      <point x="244.0" y="447.0"/>
      <point x="244.0" y="524.0" type="curve" smooth="yes"/>
      <point x="244.0" y="598.0"/>
      <point x="257.0" y="626.0"/>
      <point x="282.0" y="626.0" type="curve" smooth="yes"/>
      <point x="306.0" y="626.0"/>
      <point x="320.0" y="598.0"/>
      <point x="320.0" y="524.0" type="curve" smooth="yes"/>
      <point x="320.0" y="447.0"/>
      <point x="306.0" y="420.0"/>
    </contour>
    <contour>
      <point x="282.0" y="720.0" type="curve" smooth="yes"/>
      <point x="136.0" y="720.0"/>
      <point x="47.0" y="645.0"/>
      <point x="47.0" y="539.0" type="curve" smooth="yes"/>
      <point x="47.0" y="445.0"/>
      <point x="113.0" y="383.0"/>
      <point x="220.0" y="365.0" type="curve"/>
      <point x="192.0" y="395.0" type="line"/>
      <point x="192.0" y="359.0" type="line"/>
      <point x="220.0" y="392.0" type="line"/>
      <point x="105.0" y="374.0"/>
      <point x="23.0" y="307.0"/>
      <point x="23.0" y="201.0" type="curve" smooth="yes"/>
      <point x="23.0" y="76.0"/>
      <point x="122.0" y="-10.0"/>
      <point x="282.0" y="-10.0" type="curve" smooth="yes"/>
      <point x="442.0" y="-10.0"/>
      <point x="541.0" y="76.0"/>
      <point x="541.0" y="201.0" type="curve" smooth="yes"/>
      <point x="541.0" y="307.0"/>
      <point x="459.0" y="374.0"/>
      <point x="344.0" y="392.0" type="curve"/>
      <point x="372.0" y="359.0" type="line"/>
      <point x="372.0" y="395.0" type="line"/>
      <point x="344.0" y="365.0" type="line"/>
      <point x="450.0" y="383.0"/>
      <point x="517.0" y="445.0"/>
      <point x="517.0" y="539.0" type="curve" smooth="yes"/>
      <point x="517.0" y="645.0"/>
      <point x="427.0" y="720.0"/>
    </contour>
  </outline>
</glyph>
<glyph name="f_b" format="2">
  <advance width="905"/>
  <outline>
    <contour>
      <point x="649.0" y="263.0" type="curve" smooth="yes"/>
      <point x="649.0" y="161.0"/>
      <point x="640.0" y="97.0"/>
      <point x="609.0" y="97.0" type="curve" smooth="yes"/>
      <point x="578.0" y="97.0"/>
      <point x="572.0" y="145.0"/>
      <point x="558.0" y="209.0" type="curve"/>
      <point x="510.0" y="156.0" type="line"/>
      <point x="539.0" y="41.0"/>
      <point x="591.0" y="-10.0"/>
      <point x="690.0" y="-10.0" type="curve" smooth="yes"/>
      <point x="804.0" y="-10.0"/>
      <point x="885.0" y="103.0"/>
      <point x="885.0" y="263.0" type="curve" smooth="yes"/>
      <point x="885.0" y="419.0"/>
      <point x="812.0" y="523.0"/>
      <point x="697.0" y="523.0" type="curve" smooth="yes"/>
      <point x="614.0" y="523.0"/>
      <point x="577.0" y="465.0"/>
      <point x="533.0" y="351.0" type="curve"/>
      <point x="559.0" y="293.0" type="line"/>
      <point x="581.0" y="368.0"/>
      <point x="590.0" y="416.0"/>
      <point x="617.0" y="416.0" type="curve" smooth="yes"/>
      <point x="641.0" y="416.0"/>
      <point x="649.0" y="363.0"/>
    </contour>
    <contour>
      <point x="349.0" y="676.0" type="line"/>
      <point x="349.0" y="0.0" type="line"/>
      <point x="488.0" y="0.0" type="line"/>
      <point x="558.0" y="105.0" type="line"/>
      <point x="581.0" y="111.0" type="line"/>
      <point x="581.0" y="731.0" type="line"/>
      <point x="327.0" y="731.0" type="line"/>
    </contour>
    <contour>
      <point x="-6.0" y="513.0" type="line"/>
      <point x="-6.0" y="432.0" type="line"/>
      <point x="326.0" y="432.0" type="line"/>
      <point x="326.0" y="513.0" type="line"/>
    </contour>
    <contour>
      <point x="279.0" y="574.0" type="line" smooth="yes"/>
      <point x="279.0" y="636.0"/>
      <point x="292.0" y="659.0"/>
      <point x="324.0" y="659.0" type="curve" smooth="yes"/>
      <point x="355.0" y="659.0"/>
      <point x="376.0" y="632.0"/>
      <point x="390.0" y="572.0" type="curve"/>
      <point x="496.0" y="695.0" type="line"/>
      <point x="451.0" y="722.0"/>
      <point x="393.0" y="748.0"/>
      <point x="297.0" y="748.0" type="curve" smooth="yes"/>
      <point x="163.0" y="748.0"/>
      <point x="48.0" y="695.0"/>
      <point x="48.0" y="543.0" type="curve" smooth="yes"/>
      <point x="48.0" y="102.0" type="line" smooth="yes"/>
      <point x="48.0" y="81.0"/>
      <point x="38.0" y="72.0"/>
      <point x="19.0" y="72.0" type="curve" smooth="yes"/>
      <point x="9.0" y="72.0" type="line"/>
      <point x="9.0" y="0.0" type="line"/>
      <point x="310.0" y="0.0" type="line"/>
      <point x="310.0" y="72.0" type="line"/>
      <point x="305.0" y="72.0" type="line" smooth="yes"/>
      <point x="291.0" y="72.0"/>
      <point x="279.0" y="74.0"/>
      <point x="279.0" y="80.0" type="curve"/>
    </contour>
  </outline>
</glyph>
<glyph name="f_f.short" format="2">
  <advance width="670"/>
  <outline>
    <contour>
      <point x="-6.0" y="513.0" type="line"/>
      <point x="-6.0" y="432.0" type="line"/>
      <point x="352.0" y="432.0" type="line"/>
      <point x="352.0" y="513.0" type="line"/>
    </contour>
    <contour>
      <point x="294.0" y="513.0" type="line"/>
      <point x="294.0" y="432.0" type="line"/>
      <point x="665.0" y="432.0" type="line"/>
      <point x="665.0" y="513.0" type="line"/>
    </contour>
    <contour>
      <point x="349.0" y="80.0" type="line"/>
      <point x="349.0" y="74.0"/>
      <point x="337.0" y="72.0"/>
      <point x="336.0" y="72.0" type="curve" smooth="yes"/>
      <point x="334.0" y="72.0" type="line"/>
      <point x="334.0" y="0.0" type="line"/>
      <point x="630.0" y="0.0" type="line"/>
      <point x="630.0" y="72.0" type="line"/>
      <point x="622.0" y="72.0" type="line" smooth="yes"/>
      <point x="605.0" y="72.0"/>
      <point x="579.0" y="74.0"/>
      <point x="579.0" y="80.0" type="curve" smooth="yes"/>
      <point x="579.0" y="573.0" type="line" smooth="yes"/>
      <point x="579.0" y="636.0"/>
      <point x="591.0" y="661.0"/>
      <point x="622.0" y="661.0" type="curve" smooth="yes"/>
      <point x="644.0" y="661.0"/>
      <point x="666.0" y="650.0"/>
      <point x="667.0" y="647.0" type="curve"/>
      <point x="667.0" y="735.0" type="line"/>
      <point x="656.0" y="740.0"/>
      <point x="623.0" y="748.0"/>
      <point x="578.0" y="748.0" type="curve" smooth="yes"/>
      <point x="449.0" y="748.0"/>
      <point x="349.0" y="695.0"/>
      <point x="349.0" y="543.0" type="curve"/>
    </contour>
    <contour>
      <point x="279.0" y="80.0" type="curve"/>
      <point x="279.0" y="576.0" type="line" smooth="yes"/>
      <point x="279.0" y="632.0"/>
      <point x="289.0" y="649.0"/>
      <point x="310.0" y="649.0" type="curve" smooth="yes"/>
      <point x="320.0" y="649.0"/>
      <point x="334.0" y="642.0"/>
      <point x="332.0" y="640.0" type="curve"/>
      <point x="332.0" y="725.0" type="line"/>
      <point x="322.0" y="731.0"/>
      <point x="291.0" y="737.0"/>
      <point x="252.0" y="737.0" type="curve" smooth="yes"/>
      <point x="141.0" y="737.0"/>
      <point x="48.0" y="685.0"/>
      <point x="48.0" y="532.0" type="curve" smooth="yes"/>
      <point x="48.0" y="102.0" type="line" smooth="yes"/>
      <point x="48.0" y="81.0"/>
      <point x="38.0" y="72.0"/>
      <point x="19.0" y="72.0" type="curve" smooth="yes"/>
      <point x="9.0" y="72.0" type="line"/>
      <point x="9.0" y="0.0" type="line"/>
      <point x="302.0" y="0.0" type="line"/>
      <point x="302.0" y="72.0" type="line"/>
      <point x="300.0" y="72.0" type="line" smooth="yes"/>
      <point x="285.0" y="72.0"/>
      <point x="279.0" y="74.0"/>
    </contour>
  </outline>
</glyph>
<glyph name="five.oldtab" format="2">
  <advance width="471"/>
  <outline>
    <contour>
      <point x="235.0" y="-151.0" type="curve" smooth="yes"/>
      <point x="109.0" y="-151.0"/>
      <point x="44.0" y="-81.0"/>
      <point x="13.0" y="11.0" type="curve"/>
      <point x="100.0" y="66.0" type="line"/>
      <point x="116.0" y="13.0"/>
      <point x="147.0" y="-56.0"/>
      <point x="196.0" y="-56.0" type="curve" smooth="yes"/>
      <point x="242.0" y="-56.0"/>
      <point x="259.0" y="-4.0"/>
      <point x="259.0" y="91.0" type="curve" smooth="yes"/>
      <point x="259.0" y="172.0"/>
      <point x="245.0" y="217.0"/>
      <point x="205.0" y="217.0" type="curve" smooth="yes"/>
      <point x="169.0" y="217.0"/>
      <point x="153.0" y="190.0"/>
      <point x="143.0" y="146.0" type="curve"/>
      <point x="56.0" y="146.0" type="line"/>
      <point x="56.0" y="548.0" type="line"/>
      <point x="422.0" y="548.0" type="line"/>
      <point x="410.0" y="400.0" type="line"/>
      <point x="139.0" y="400.0" type="line"/>
      <point x="151.0" y="528.0" type="line"/>
      <point x="151.0" y="215.0" type="line"/>
      <point x="146.0" y="202.0"/>
      <point x="136.0" y="197.0"/>
      <point x="126.0" y="208.0" type="curve"/>
      <point x="155.0" y="263.0"/>
      <point x="189.0" y="305.0"/>
      <point x="282.0" y="305.0" type="curve" smooth="yes"/>
      <point x="403.0" y="305.0"/>
      <point x="468.0" y="212.0"/>
      <point x="468.0" y="90.0" type="curve" smooth="yes"/>
      <point x="468.0" y="-57.0"/>
      <point x="380.0" y="-151.0"/>
    </contour>
  </outline>
</glyph>
<glyph name="florin" format="2">
  <advance width="471"/>
  <outline>
    <contour>
      <point x="54.0" y="508.0" type="line"/>
      <point x="46.0" y="418.0" type="line"/>
      <point x="427.0" y="418.0" type="line"/>
      <point x="433.0" y="508.0" type="line"/>
    </contour>
    <contour>
      <point x="136.0" y="548.0" type="curve" smooth="yes"/>
      <point x="81.0" y="65.0" type="line" smooth="yes"/>
      <point x="58.0" y="-114.0"/>
      <point x="31.0" y="-136.0"/>
      <point x="-1.0" y="-136.0" type="curve" smooth="yes"/>
      <point x="-26.0" y="-136.0"/>
      <point x="-47.0" y="-124.0"/>
      <point x="-57.0" y="-118.0" type="curve"/>
      <point x="-61.0" y="-216.0" type="line"/>
      <point x="-47.0" y="-226.0"/>
      <point x="-14.0" y="-236.0"/>
      <point x="27.0" y="-236.0" type="curve" smooth="yes"/>
      <point x="158.0" y="-236.0"/>
      <point x="254.0" y="-157.0"/>
      <point x="285.0" y="79.0" type="curve" smooth="yes"/>
      <point x="342.0" y="560.0" type="line" smooth="yes"/>
      <point x="349.0" y="624.0"/>
      <point x="375.0" y="643.0"/>
      <point x="403.0" y="643.0" type="curve" smooth="yes"/>
      <point x="428.0" y="643.0"/>
      <point x="443.0" y="636.0"/>
      <point x="454.0" y="629.0" type="curve"/>
      <point x="461.0" y="724.0" type="line"/>
      <point x="440.0" y="736.0"/>
      <point x="407.0" y="745.0"/>
      <point x="351.0" y="745.0" type="curve" smooth="yes"/>
      <point x="226.0" y="745.0"/>
      <point x="154.0" y="682.0"/>
    </contour>
  </outline>
</glyph>
<glyph name="florin.proportional" format="2">
  <advance width="438"/>
  <outline>
    <contour>
      <point x="30.0" y="508.0" type="line"/>
      <point x="23.0" y="418.0" type="line"/>
      <point x="403.0" y="418.0" type="line"/>
      <point x="411.0" y="508.0" type="line"/>
    </contour>
    <contour>
      <point x="113.0" y="548.0" type="curve" smooth="yes"/>
      <point x="57.0" y="65.0" type="line" smooth="yes"/>
      <point x="36.0" y="-115.0"/>
      <point x="8.0" y="-136.0"/>
      <point x="-24.0" y="-136.0" type="curve" smooth="yes"/>
      <point x="-49.0" y="-136.0"/>
      <point x="-70.0" y="-124.0"/>
      <point x="-80.0" y="-118.0" type="curve"/>
      <point x="-84.0" y="-216.0" type="line"/>
      <point x="-70.0" y="-226.0"/>
      <point x="-37.0" y="-236.0"/>
      <point x="4.0" y="-236.0" type="curve" smooth="yes"/>
      <point x="135.0" y="-236.0"/>
      <point x="231.0" y="-158.0"/>
      <point x="261.0" y="79.0" type="curve" smooth="yes"/>
      <point x="319.0" y="560.0" type="line" smooth="yes"/>
      <point x="326.0" y="624.0"/>
      <point x="351.0" y="643.0"/>
      <point x="380.0" y="643.0" type="curve" smooth="yes"/>
      <point x="404.0" y="643.0"/>
      <point x="419.0" y="636.0"/>
      <point x="431.0" y="629.0" type="curve"/>
      <point x="438.0" y="724.0" type="line"/>
      <point x="416.0" y="736.0"/>
      <point x="384.0" y="745.0"/>
      <point x="328.0" y="745.0" type="curve" smooth="yes"/>
      <point x="203.0" y="745.0"/>
      <point x="130.0" y="682.0"/>
    </contour>
  </outline>
</glyph>
<glyph name="four.midprop" format="2">
  <advance width="550"/>
  <outline>
    <contour>
      <point x="18.0" y="79.0" type="line"/>
      <point x="534.0" y="79.0" type="line"/>
      <point x="534.0" y="217.0" type="line"/>
      <point x="103.0" y="217.0" type="line"/>
      <point x="67.0" y="142.0" type="line"/>
      <point x="283.0" y="528.0" type="line"/>
      <point x="293.0" y="609.0" type="line"/>
      <point x="240.0" y="609.0" type="line"/>
      <point x="18.0" y="221.0" type="line"/>
    </contour>
    <contour>
      <point x="462.0" y="-77.0" type="line"/>
      <point x="462.0" y="609.0" type="line"/>
      <point x="266.0" y="609.0" type="line"/>
      <point x="251.0" y="521.0" type="line"/>
      <point x="251.0" y="-77.0" type="line"/>
    </contour>
  </outline>
</glyph>
<glyph name="franc.proportional" format="2">
  <advance width="523"/>
  <outline>
    <contour>
      <point x="315.0" y="623.0" type="line"/>
      <point x="335.0" y="623.0" type="line" smooth="yes"/>
      <point x="370.0" y="623.0"/>
      <point x="399.0" y="616.0"/>
      <point x="401.0" y="580.0" type="curve" smooth="yes"/>
      <point x="406.0" y="504.0" type="line"/>
      <point x="504.0" y="504.0" type="line"/>
      <point x="504.0" y="710.0" type="line"/>
      <point x="41.0" y="710.0" type="line"/>
      <point x="41.0" y="633.0" type="line"/>
      <point x="49.0" y="633.0" type="line" smooth="yes"/>
      <point x="66.0" y="633.0"/>
      <point x="78.0" y="626.0"/>
      <point x="78.0" y="597.0" type="curve" smooth="yes"/>
      <point x="78.0" y="113.0" type="line" smooth="yes"/>
      <point x="78.0" y="84.0"/>
      <point x="66.0" y="77.0"/>
      <point x="49.0" y="77.0" type="curve" smooth="yes"/>
      <point x="41.0" y="77.0" type="line"/>
      <point x="41.0" y="0.0" type="line"/>
      <point x="369.0" y="0.0" type="line"/>
      <point x="369.0" y="77.0" type="line"/>
      <point x="355.0" y="77.0" type="line" smooth="yes"/>
      <point x="337.0" y="77.0"/>
      <point x="315.0" y="78.0"/>
      <point x="315.0" y="113.0" type="curve" smooth="yes"/>
    </contour>
    <contour>
      <point x="41.0" y="253.0" type="line"/>
      <point x="41.0" y="174.0" type="line"/>
      <point x="393.0" y="174.0" type="line"/>
      <point x="393.0" y="253.0" type="line"/>
    </contour>
    <contour>
      <point x="292.0" y="423.0" type="curve"/>
      <point x="292.0" y="347.0" type="line"/>
      <point x="339.0" y="343.0"/>
      <point x="387.0" y="339.0"/>
      <point x="433.0" y="334.0" type="curve"/>
      <point x="433.0" y="436.0" type="line"/>
      <point x="387.0" y="431.0"/>
      <point x="339.0" y="427.0"/>
    </contour>
  </outline>
</glyph>
<glyph name="guarani.proportional" format="2">
  <advance width="682"/>
  <outline>
    <contour>
      <point x="306.0" y="790.0" type="line"/>
      <point x="306.0" y="662.0" type="line"/>
      <point x="319.0" y="652.0" type="line"/>
      <point x="319.0" y="53.0" type="line"/>
      <point x="306.0" y="40.0" type="line"/>
      <point x="306.0" y="-120.0" type="line"/>
      <point x="397.0" y="-120.0" type="line"/>
      <point x="397.0" y="38.0" type="line"/>
      <point x="384.0" y="54.0" type="line"/>
      <point x="384.0" y="660.0" type="line"/>
      <point x="397.0" y="670.0" type="line"/>
      <point x="397.0" y="790.0" type="line"/>
    </contour>
    <contour>
      <point x="353.0" y="-7.0" type="curve" smooth="yes"/>
      <point x="483.0" y="-7.0"/>
      <point x="591.0" y="54.0"/>
      <point x="627.0" y="108.0" type="curve"/>
      <point x="627.0" y="249.0" type="line"/>
      <point x="627.0" y="278.0"/>
      <point x="636.0" y="285.0"/>
      <point x="648.0" y="285.0" type="curve" smooth="yes"/>
      <point x="654.0" y="285.0" type="line"/>
      <point x="654.0" y="362.0" type="line"/>
      <point x="455.0" y="362.0" type="line"/>
      <point x="455.0" y="285.0" type="line"/>
      <point x="454.0" y="285.0" type="line"/>
      <point x="446.0" y="285.0"/>
      <point x="441.0" y="278.0"/>
      <point x="441.0" y="249.0" type="curve"/>
      <point x="441.0" y="118.0" type="line"/>
      <point x="423.0" y="100.0"/>
      <point x="394.0" y="85.0"/>
      <point x="368.0" y="85.0" type="curve" smooth="yes"/>
      <point x="293.0" y="85.0"/>
      <point x="249.0" y="174.0"/>
      <point x="249.0" y="355.0" type="curve" smooth="yes"/>
      <point x="249.0" y="518.0"/>
      <point x="273.0" y="625.0"/>
      <point x="389.0" y="625.0" type="curve" smooth="yes"/>
      <point x="440.0" y="625.0"/>
      <point x="476.0" y="592.0"/>
      <point x="490.0" y="553.0" type="curve"/>
      <point x="558.0" y="547.0"/>
      <point x="499.0" y="602.0"/>
      <point x="455.0" y="610.0" type="curve"/>
      <point x="455.0" y="498.0" type="line"/>
      <point x="623.0" y="498.0" type="line"/>
      <point x="623.0" y="636.0" type="line"/>
      <point x="605.0" y="662.0"/>
      <point x="522.0" y="717.0"/>
      <point x="377.0" y="717.0" type="curve" smooth="yes"/>
      <point x="160.0" y="717.0"/>
      <point x="23.0" y="567.0"/>
      <point x="23.0" y="355.0" type="curve" smooth="yes"/>
      <point x="23.0" y="136.0"/>
      <point x="156.0" y="-7.0"/>
    </contour>
  </outline>
</glyph>
<glyph name="kip.proportional" format="2">
  <advance width="676"/>
  <outline>
    <contour>
      <point x="24.0" y="412.0" type="line"/>
      <point x="24.0" y="323.0" type="line"/>
      <point x="659.0" y="323.0" type="line"/>
      <point x="659.0" y="412.0" type="line"/>
    </contour>
    <contour>
      <point x="24.0" y="0.0" type="line"/>
      <point x="320.0" y="0.0" type="line"/>
      <point x="320.0" y="77.0" type="line"/>
      <point x="313.0" y="77.0" type="line" smooth="yes"/>
      <point x="303.0" y="77.0"/>
      <point x="294.0" y="80.0"/>
      <point x="294.0" y="87.0" type="curve" smooth="yes"/>
      <point x="294.0" y="623.0" type="line" smooth="yes"/>
      <point x="294.0" y="630.0"/>
      <point x="316.0" y="633.0"/>
      <point x="340.0" y="633.0" type="curve" smooth="yes"/>
      <point x="350.0" y="633.0" type="line"/>
      <point x="350.0" y="710.0" type="line"/>
      <point x="24.0" y="710.0" type="line"/>
      <point x="24.0" y="633.0" type="line"/>
      <point x="33.0" y="633.0" type="line" smooth="yes"/>
      <point x="50.0" y="633.0"/>
      <point x="62.0" y="626.0"/>
      <point x="62.0" y="597.0" type="curve" smooth="yes"/>
      <point x="62.0" y="113.0" type="line" smooth="yes"/>
      <point x="62.0" y="84.0"/>
      <point x="50.0" y="77.0"/>
      <point x="33.0" y="77.0" type="curve" smooth="yes"/>
      <point x="24.0" y="77.0" type="line"/>
    </contour>
    <contour>
      <point x="344.0" y="0.0" type="line"/>
      <point x="662.0" y="0.0" type="line"/>
      <point x="662.0" y="77.0" type="line"/>
      <point x="651.0" y="77.0" type="line" smooth="yes"/>
      <point x="638.0" y="77.0"/>
      <point x="626.0" y="85.0"/>
      <point x="619.0" y="110.0" type="curve" smooth="yes"/>
      <point x="498.0" y="479.0" type="line"/>
      <point x="412.0" y="355.0" type="line"/>
      <point x="567.0" y="596.0" type="line" smooth="yes"/>
      <point x="590.0" y="626.0"/>
      <point x="603.0" y="633.0"/>
      <point x="629.0" y="633.0" type="curve" smooth="yes"/>
      <point x="648.0" y="633.0" type="line"/>
      <point x="648.0" y="710.0" type="line"/>
      <point x="415.0" y="710.0" type="line"/>
      <point x="415.0" y="633.0" type="line"/>
      <point x="424.0" y="633.0" type="line" smooth="yes"/>
      <point x="447.0" y="633.0"/>
      <point x="481.0" y="632.0"/>
      <point x="480.0" y="625.0" type="curve"/>
      <point x="308.0" y="366.0" type="line"/>
      <point x="323.0" y="334.0" type="line"/>
      <point x="371.0" y="87.0" type="line"/>
      <point x="371.0" y="80.0"/>
      <point x="362.0" y="77.0"/>
      <point x="350.0" y="77.0" type="curve" smooth="yes"/>
      <point x="344.0" y="77.0" type="line"/>
    </contour>
  </outline>
</glyph>
<glyph name="lira.alt" format="2">
  <advance width="472"/>
  <outline>
    <contour>
      <point x="11.0" y="0.0" type="line"/>
      <point x="449.0" y="0.0" type="line"/>
      <point x="449.0" y="227.0" type="line"/>
      <point x="365.0" y="227.0" type="line"/>
      <point x="359.0" y="184.0" type="line" smooth="yes"/>
      <point x="353.0" y="148.0"/>
      <point x="332.0" y="141.0"/>
      <point x="270.0" y="141.0" type="curve" smooth="yes"/>
      <point x="206.0" y="141.0" type="line"/>
      <point x="116.0" y="91.0" type="line"/>
      <point x="247.0" y="130.0"/>
      <point x="271.0" y="200.0"/>
      <point x="271.0" y="274.0" type="curve" smooth="yes"/>
      <point x="271.0" y="378.0"/>
      <point x="239.0" y="459.0"/>
      <point x="239.0" y="542.0" type="curve" smooth="yes"/>
      <point x="239.0" y="596.0"/>
      <point x="252.0" y="625.0"/>
      <point x="275.0" y="625.0" type="curve" smooth="yes"/>
      <point x="285.0" y="625.0"/>
      <point x="295.0" y="614.0"/>
      <point x="300.0" y="597.0" type="curve"/>
      <point x="327.0" y="604.0"/>
      <point x="331.0" y="632.0"/>
      <point x="284.0" y="632.0" type="curve"/>
      <point x="284.0" y="549.0" type="line"/>
      <point x="440.0" y="549.0" type="line"/>
      <point x="440.0" y="665.0" type="line"/>
      <point x="415.0" y="687.0"/>
      <point x="354.0" y="720.0"/>
      <point x="258.0" y="720.0" type="curve" smooth="yes"/>
      <point x="106.0" y="720.0"/>
      <point x="32.0" y="633.0"/>
      <point x="32.0" y="528.0" type="curve" smooth="yes"/>
      <point x="32.0" y="400.0"/>
      <point x="109.0" y="344.0"/>
      <point x="109.0" y="240.0" type="curve" smooth="yes"/>
      <point x="109.0" y="182.0"/>
      <point x="79.0" y="142.0"/>
      <point x="11.0" y="124.0" type="curve"/>
    </contour>
    <contour>
      <point x="11.0" y="494.0" type="line"/>
      <point x="11.0" y="415.0" type="line"/>
      <point x="380.0" y="415.0" type="line"/>
      <point x="380.0" y="494.0" type="line"/>
    </contour>
    <contour>
      <point x="11.0" y="353.0" type="line"/>
      <point x="11.0" y="274.0" type="line"/>
      <point x="380.0" y="274.0" type="line"/>
      <point x="380.0" y="353.0" type="line"/>
    </contour>
  </outline>
</glyph>
<glyph name="seven.linprop" format="2">
  <advance width="479"/>
  <outline>
    <contour>
      <point x="180.0" y="562.0" type="line" smooth="yes"/>
      <point x="133.0" y="562.0"/>
      <point x="115.0" y="555.0"/>
      <point x="112.0" y="519.0" type="curve" smooth="yes"/>
      <point x="106.0" y="444.0" type="line"/>
      <point x="34.0" y="444.0" type="line"/>
      <point x="34.0" y="710.0" type="line"/>
      <point x="462.0" y="710.0" type="line"/>
      <point x="462.0" y="576.0" type="line"/>
      <point x="364.0" y="432.0"/>
      <point x="323.0" y="340.0"/>
      <point x="320.0" y="0.0" type="curve"/>
      <point x="105.0" y="0.0" type="line"/>
      <point x="122.0" y="324.0"/>
      <point x="304.0" y="512.0"/>
      <point x="400.0" y="597.0" type="curve"/>
      <point x="425.0" y="562.0" type="line"/>
    </contour>
  </outline>
</glyph>
<glyph name="seven.midprop" format="2">
  <advance width="479"/>
  <outline>
    <contour>
      <point x="179.0" y="461.0" type="line" smooth="yes"/>
      <point x="132.0" y="461.0"/>
      <point x="115.0" y="454.0"/>
      <point x="111.0" y="418.0" type="curve" smooth="yes"/>
      <point x="106.0" y="343.0" type="line"/>
      <point x="34.0" y="343.0" type="line"/>
      <point x="34.0" y="609.0" type="line"/>
      <point x="463.0" y="609.0" type="line"/>
      <point x="463.0" y="475.0" type="line"/>
      <point x="365.0" y="330.0"/>
      <point x="323.0" y="230.0"/>
      <point x="321.0" y="-77.0" type="curve"/>
      <point x="107.0" y="-77.0" type="line"/>
      <point x="123.0" y="214.0"/>
      <point x="305.0" y="411.0"/>
      <point x="401.0" y="496.0" type="curve"/>
      <point x="426.0" y="461.0" type="line"/>
    </contour>
  </outline>
</glyph>
<glyph name="six.lintab" format="2">
  <advance width="471"/>
  <outline>
    <contour>
      <point x="414.0" y="654.0" type="line"/>
      <point x="297.0" y="618.0"/>
      <point x="220.0" y="493.0"/>
      <point x="220.0" y="286.0" type="curve" smooth="yes"/>
      <point x="220.0" y="122.0"/>
      <point x="223.0" y="76.0"/>
      <point x="235.0" y="76.0" type="curve" smooth="yes"/>
      <point x="248.0" y="76.0"/>
      <point x="249.0" y="125.0"/>
      <point x="249.0" y="229.0" type="curve" smooth="yes"/>
      <point x="249.0" y="313.0"/>
      <point x="250.0" y="367.0"/>
      <point x="227.0" y="367.0" type="curve" smooth="yes"/>
      <point x="212.0" y="367.0"/>
      <point x="201.0" y="331.0"/>
      <point x="186.0" y="283.0" type="curve"/>
      <point x="182.0" y="355.0" type="line"/>
      <point x="194.0" y="401.0"/>
      <point x="222.0" y="453.0"/>
      <point x="294.0" y="453.0" type="curve" smooth="yes"/>
      <point x="396.0" y="453.0"/>
      <point x="463.0" y="377.0"/>
      <point x="463.0" y="237.0" type="curve" smooth="yes"/>
      <point x="463.0" y="82.0"/>
      <point x="376.0" y="-10.0"/>
      <point x="242.0" y="-10.0" type="curve" smooth="yes"/>
      <point x="99.0" y="-10.0"/>
      <point x="9.0" y="83.0"/>
      <point x="9.0" y="290.0" type="curve" smooth="yes"/>
      <point x="9.0" y="513.0"/>
      <point x="168.0" y="697.0"/>
      <point x="401.0" y="740.0" type="curve"/>
    </contour>
  </outline>
</glyph>
<glyph name="slash.uc" format="2">
  <advance width="430"/>
  <outline>
    <contour>
      <point x="293.0" y="741.0" type="line"/>
      <point x="37.0" y="-35.0" type="line"/>
      <point x="185.0" y="-35.0" type="line"/>
      <point x="441.0" y="741.0" type="line"/>
    </contour>
  </outline>
</glyph>
<glyph name="sterling.alt" format="2">
  <advance width="471"/>
  <outline>
    <contour>
      <point x="14.0" y="0.0" type="line"/>
      <point x="449.0" y="0.0" type="line"/>
      <point x="449.0" y="248.0" type="line"/>
      <point x="366.0" y="248.0" type="line"/>
      <point x="359.0" y="190.0" type="line" smooth="yes"/>
      <point x="353.0" y="154.0"/>
      <point x="332.0" y="147.0"/>
      <point x="269.0" y="147.0" type="curve" smooth="yes"/>
      <point x="209.0" y="147.0" type="line"/>
      <point x="119.0" y="91.0" type="line"/>
      <point x="250.0" y="130.0"/>
      <point x="274.0" y="200.0"/>
      <point x="274.0" y="274.0" type="curve" smooth="yes"/>
      <point x="274.0" y="378.0"/>
      <point x="242.0" y="459.0"/>
      <point x="242.0" y="542.0" type="curve" smooth="yes"/>
      <point x="242.0" y="595.0"/>
      <point x="248.0" y="625.0"/>
      <point x="269.0" y="625.0" type="curve" smooth="yes"/>
      <point x="277.0" y="625.0"/>
      <point x="285.0" y="614.0"/>
      <point x="292.0" y="593.0" type="curve"/>
      <point x="322.0" y="599.0"/>
      <point x="317.0" y="629.0"/>
      <point x="277.0" y="629.0" type="curve"/>
      <point x="277.0" y="522.0" type="line"/>
      <point x="433.0" y="522.0" type="line"/>
      <point x="433.0" y="662.0" type="line"/>
      <point x="414.0" y="683.0"/>
      <point x="366.0" y="720.0"/>
      <point x="255.0" y="720.0" type="curve"/>
      <point x="110.0" y="720.0"/>
      <point x="35.0" y="633.0"/>
      <point x="35.0" y="528.0" type="curve" smooth="yes"/>
      <point x="35.0" y="400.0"/>
      <point x="112.0" y="344.0"/>
      <point x="112.0" y="240.0" type="curve" smooth="yes"/>
      <point x="112.0" y="182.0"/>
      <point x="82.0" y="142.0"/>
      <point x="14.0" y="124.0" type="curve"/>
    </contour>
    <contour>
      <point x="14.0" y="411.0" type="line"/>
      <point x="14.0" y="308.0" type="line"/>
      <point x="380.0" y="308.0" type="line"/>
      <point x="380.0" y="411.0" type="line"/>
    </contour>
  </outline>
</glyph>
<glyph name="three.lintab" format="2">
  <advance width="471"/>
  <outline>
    <contour>
      <point x="189.0" y="389.0" type="line"/>
      <point x="387.0" y="389.0"/>
      <point x="469.0" y="318.0"/>
      <point x="469.0" y="201.0" type="curve"/>
      <point x="469.0" y="63.0"/>
      <point x="363.0" y="-10.0"/>
      <point x="234.0" y="-10.0" type="curve" smooth="yes"/>
      <point x="92.0" y="-10.0"/>
      <point x="34.0" y="69.0"/>
      <point x="7.0" y="160.0" type="curve"/>
      <point x="90.0" y="214.0" type="line"/>
      <point x="110.0" y="160.0"/>
      <point x="134.0" y="84.0"/>
      <point x="192.0" y="84.0" type="curve" smooth="yes"/>
      <point x="238.0" y="84.0"/>
      <point x="258.0" y="127.0"/>
      <point x="258.0" y="209.0" type="curve" smooth="yes"/>
      <point x="258.0" y="283.0"/>
      <point x="250.0" y="334.0"/>
      <point x="171.0" y="334.0" type="curve" smooth="yes"/>
      <point x="142.0" y="334.0" type="line"/>
      <point x="142.0" y="421.0" type="line"/>
      <point x="162.0" y="421.0" type="line" smooth="yes"/>
      <point x="231.0" y="421.0"/>
      <point x="253.0" y="458.0"/>
      <point x="253.0" y="545.0" type="curve" smooth="yes"/>
      <point x="253.0" y="605.0"/>
      <point x="243.0" y="628.0"/>
      <point x="217.0" y="628.0" type="curve" smooth="yes"/>
      <point x="199.0" y="628.0"/>
      <point x="186.0" y="607.0"/>
      <point x="176.0" y="583.0" type="curve"/>
      <point x="171.0" y="590.0"/>
      <point x="166.0" y="638.0"/>
      <point x="194.0" y="641.0" type="curve"/>
      <point x="194.0" y="528.0" type="line"/>
      <point x="39.0" y="528.0" type="line"/>
      <point x="39.0" y="645.0" type="line"/>
      <point x="79.0" y="684.0"/>
      <point x="151.0" y="720.0"/>
      <point x="246.0" y="720.0" type="curve" smooth="yes"/>
      <point x="364.0" y="720.0"/>
      <point x="457.0" y="666.0"/>
      <point x="457.0" y="551.0" type="curve" smooth="yes"/>
      <point x="457.0" y="425.0"/>
      <point x="331.0" y="371.0"/>
      <point x="175.0" y="371.0" type="curve"/>
      <point x="307.0" y="397.0" type="line"/>
      <point x="307.0" y="366.0" type="line"/>
    </contour>
  </outline>
</glyph>
<glyph name="three.oldprop" format="2">
  <advance width="535"/>
  <outline>
    <contour>
      <point x="220.0" y="-56.0" type="curve" smooth="yes"/>
      <point x="273.0" y="-56.0"/>
      <point x="301.0" y="-16.0"/>
      <point x="301.0" y="61.0" type="curve" smooth="yes"/>
      <point x="301.0" y="129.0"/>
      <point x="293.0" y="179.0"/>
      <point x="220.0" y="179.0" type="curve" smooth="yes"/>
      <point x="169.0" y="179.0" type="line"/>
      <point x="169.0" y="265.0" type="line"/>
      <point x="204.0" y="265.0" type="line" smooth="yes"/>
      <point x="269.0" y="265.0"/>
      <point x="296.0" y="303.0"/>
      <point x="296.0" y="387.0" type="curve" smooth="yes"/>
      <point x="296.0" y="444.0"/>
      <point x="275.0" y="468.0"/>
      <point x="255.0" y="468.0" type="curve" smooth="yes"/>
      <point x="238.0" y="468.0"/>
      <point x="215.0" y="448.0"/>
      <point x="206.0" y="423.0" type="curve"/>
      <point x="201.0" y="430.0"/>
      <point x="198.0" y="476.0"/>
      <point x="226.0" y="479.0" type="curve"/>
      <point x="226.0" y="364.0" type="line"/>
      <point x="68.0" y="364.0" type="line"/>
      <point x="68.0" y="484.0" type="line"/>
      <point x="107.0" y="522.0"/>
      <point x="187.0" y="558.0"/>
      <point x="279.0" y="558.0" type="curve" smooth="yes"/>
      <point x="390.0" y="558.0"/>
      <point x="500.0" y="506.0"/>
      <point x="500.0" y="390.0" type="curve" smooth="yes"/>
      <point x="500.0" y="269.0"/>
      <point x="363.0" y="215.0"/>
      <point x="209.0" y="215.0" type="curve"/>
      <point x="277.0" y="247.0" type="line"/>
      <point x="277.0" y="204.0" type="line"/>
      <point x="230.0" y="234.0" type="line"/>
      <point x="426.0" y="234.0"/>
      <point x="512.0" y="166.0"/>
      <point x="512.0" y="53.0" type="curve" smooth="yes"/>
      <point x="512.0" y="-81.0"/>
      <point x="398.0" y="-150.0"/>
      <point x="257.0" y="-150.0" type="curve" smooth="yes"/>
      <point x="107.0" y="-150.0"/>
      <point x="50.0" y="-75.0"/>
      <point x="23.0" y="18.0" type="curve"/>
      <point x="109.0" y="65.0" type="line"/>
      <point x="125.0" y="14.0"/>
      <point x="151.0" y="-56.0"/>
    </contour>
  </outline>
</glyph>
<glyph name="two.midprop" format="2">
  <advance width="511"/>
  <outline>
    <contour>
      <point x="292.0" y="147.0" type="line" smooth="yes"/>
      <point x="355.0" y="147.0"/>
      <point x="376.0" y="151.0"/>
      <point x="382.0" y="187.0" type="curve" smooth="yes"/>
      <point x="389.0" y="236.0" type="line"/>
      <point x="471.0" y="236.0" type="line"/>
      <point x="471.0" y="0.0" type="line"/>
      <point x="15.0" y="0.0" type="line"/>
      <point x="15.0" y="160.0" type="line"/>
      <point x="153.0" y="250.0"/>
      <point x="251.0" y="306.0"/>
      <point x="251.0" y="438.0" type="curve" smooth="yes"/>
      <point x="251.0" y="500.0"/>
      <point x="239.0" y="528.0"/>
      <point x="211.0" y="528.0" type="curve" smooth="yes"/>
      <point x="191.0" y="528.0"/>
      <point x="180.0" y="507.0"/>
      <point x="169.0" y="482.0" type="curve"/>
      <point x="164.0" y="489.0"/>
      <point x="162.0" y="536.0"/>
      <point x="191.0" y="540.0" type="curve"/>
      <point x="191.0" y="414.0" type="line"/>
      <point x="31.0" y="414.0" type="line"/>
      <point x="31.0" y="544.0" type="line"/>
      <point x="72.0" y="582.0"/>
      <point x="145.0" y="618.0"/>
      <point x="245.0" y="618.0" type="curve" smooth="yes"/>
      <point x="390.0" y="618.0"/>
      <point x="465.0" y="551.0"/>
      <point x="465.0" y="437.0" type="curve" smooth="yes"/>
      <point x="465.0" y="284.0"/>
      <point x="266.0" y="194.0"/>
      <point x="107.0" y="125.0" type="curve"/>
      <point x="102.0" y="120.0"/>
      <point x="109.0" y="141.0"/>
      <point x="99.0" y="147.0" type="curve"/>
    </contour>
  </outline>
</glyph>
<glyph name="whitesquare" format="2">
  <advance width="495"/>
  <outline>
    <contour>
      <point x="72.0" y="104.0" type="line"/>
      <point x="423.0" y="104.0" type="line"/>
      <point x="423.0" y="522.0" type="line"/>
      <point x="72.0" y="522.0" type="line"/>
    </contour>
    <contour>
      <point x="118.0" y="159.0" type="line"/>
      <point x="118.0" y="467.0" type="line"/>
      <point x="377.0" y="467.0" type="line"/>
      <point x="377.0" y="159.0" type="line"/>
    </contour>
  </outline>
</glyph>
<glyph name="zero.lintab" format="2">
  <advance width="471"/>
  <outline>
    <contour>
      <point x="235.0" y="-11.0" type="curve" smooth="yes"/>
      <point x="369.0" y="-11.0"/>
      <point x="465.0" y="128.0"/>
      <point x="465.0" y="354.0" type="curve" smooth="yes"/>
      <point x="465.0" y="582.0"/>
      <point x="369.0" y="720.0"/>
      <point x="235.0" y="720.0" type="curve" smooth="yes"/>
      <point x="102.0" y="720.0"/>
      <point x="6.0" y="582.0"/>
      <point x="6.0" y="354.0" type="curve" smooth="yes"/>
      <point x="6.0" y="128.0"/>
      <point x="102.0" y="-11.0"/>
    </contour>
    <contour>
      <point x="235.0" y="79.0" type="curve" smooth="yes"/>
      <point x="220.0" y="79.0"/>
      <point x="222.0" y="131.0"/>
      <point x="222.0" y="354.0" type="curve" smooth="yes"/>
      <point x="222.0" y="581.0"/>
      <point x="220.0" y="630.0"/>
      <point x="235.0" y="630.0" type="curve" smooth="yes"/>
      <point x="251.0" y="630.0"/>
      <point x="249.0" y="581.0"/>
      <point x="249.0" y="354.0" type="curve" smooth="yes"/>
      <point x="249.0" y="131.0"/>
      <point x="251.0" y="79.0"/>
    </contour>
  </outline>
</glyph>
<glyph name="zero.slash" format="2">
  <advance width="471"/>
  <outline>
    <contour>
      <point x="144.0" y="134.0" type="line"/>
      <point x="324.0" y="369.0" type="line"/>
      <point x="327.0" y="474.0" type="line"/>
      <point x="149.0" y="238.0" type="line"/>
    </contour>
    <contour>
      <point x="235.0" y="-11.0" type="curve" smooth="yes"/>
      <point x="370.0" y="-11.0"/>
      <point x="465.0" y="108.0"/>
      <point x="465.0" y="304.0" type="curve" smooth="yes"/>
      <point x="465.0" y="500.0"/>
      <point x="370.0" y="619.0"/>
      <point x="235.0" y="619.0" type="curve" smooth="yes"/>
      <point x="101.0" y="619.0"/>
      <point x="6.0" y="500.0"/>
      <point x="6.0" y="304.0" type="curve" smooth="yes"/>
      <point x="6.0" y="108.0"/>
      <point x="101.0" y="-11.0"/>
    </contour>
    <contour>
      <point x="235.0" y="79.0" type="curve" smooth="yes"/>
      <point x="211.0" y="79.0"/>
      <point x="209.0" y="124.0"/>
      <point x="209.0" y="304.0" type="curve" smooth="yes"/>
      <point x="209.0" y="484.0"/>
      <point x="211.0" y="529.0"/>
      <point x="235.0" y="529.0" type="curve" smooth="yes"/>
      <point x="260.0" y="529.0"/>
      <point x="262.0" y="484.0"/>
      <point x="262.0" y="304.0" type="curve" smooth="yes"/>
      <point x="262.0" y="124.0"/>
      <point x="260.0" y="79.0"/>
    </contour>
  </outline>
</glyph>
